<?xml version="1.0" encoding="UTF-8"?>
<svg xmlns="http://www.w3.org/2000/svg" viewBox="0 0 356 310">
  <defs>
    <style>
      .cls-1 {
        fill: #fff;
      }

      .cls-2 {
        fill: #279d2e;
      }

      .cls-3 {
        fill: #333;
      }

      .cls-4 {
        stroke: #279d2e;
      }

      .cls-4, .cls-5, .cls-6 {
        stroke-miterlimit: 10;
      }

      .cls-4, .cls-6 {
        fill: none;
      }

      .cls-7 {
        fill: #e58b15;
      }

      .cls-8 {
        fill: #353535;
      }

      .cls-5 {
        fill-rule: evenodd;
        stroke: #fff;
      }

      .cls-6 {
        opacity: .11;
        stroke: #727272;
        stroke-width: 2px;
      }
    </style>
  </defs>
  <g id="Layer_3" data-name="Layer 3">
    <rect class="cls-1" x="2" y="2" width="352" height="232" rx="6" ry="6"/>
  </g>
  <g id="Layer_2" data-name="Layer 2">
    <g>
      <path class="cls-3" d="M87.49,17.21c.57-.12,1.47-.21,2.38-.21,1.3,0,2.15,.22,2.78,.73,.52,.39,.84,.99,.84,1.79,0,.97-.65,1.83-1.71,2.22v.03c.96,.24,2.08,1.04,2.08,2.54,0,.87-.34,1.53-.86,2.02-.71,.65-1.84,.95-3.49,.95-.9,0-1.59-.06-2.03-.12v-9.94Zm1.3,4.14h1.19c1.38,0,2.19-.72,2.19-1.7,0-1.18-.9-1.65-2.22-1.65-.6,0-.95,.04-1.16,.09v3.25Zm0,4.84c.25,.04,.63,.06,1.1,.06,1.35,0,2.59-.49,2.59-1.96,0-1.38-1.19-1.95-2.61-1.95h-1.08v3.85Z"/>
      <path class="cls-3" d="M97.26,24l-1.05,3.18h-1.35l3.43-10.11h1.58l3.45,10.11h-1.39l-1.08-3.18h-3.58Zm3.32-1.02l-.99-2.91c-.22-.66-.38-1.26-.53-1.84h-.03c-.15,.6-.32,1.21-.51,1.83l-.99,2.92h3.04Z"/>
      <path class="cls-3" d="M104.8,27.18v-10.11h1.42l3.24,5.11c.75,1.18,1.33,2.25,1.82,3.29l.03-.02c-.12-1.35-.15-2.58-.15-4.15v-4.23h1.23v10.11h-1.32l-3.21-5.13c-.71-1.12-1.38-2.28-1.89-3.38h-.04c.07,1.29,.1,2.5,.1,4.18v4.32h-1.23Z"/>
      <path class="cls-3" d="M121.74,26.85c-.48,.24-1.44,.48-2.67,.48-2.85,0-4.99-1.8-4.99-5.11s2.14-5.31,5.28-5.31c1.26,0,2.05,.27,2.4,.45l-.32,1.07c-.5-.24-1.2-.42-2.04-.42-2.37,0-3.94,1.51-3.94,4.17,0,2.47,1.42,4.06,3.88,4.06,.79,0,1.6-.17,2.13-.42l.27,1.04Z"/>
      <path class="cls-3" d="M125.07,24l-1.05,3.18h-1.35l3.43-10.11h1.58l3.45,10.11h-1.39l-1.08-3.18h-3.58Zm3.32-1.02l-.99-2.91c-.22-.66-.38-1.26-.53-1.84h-.03c-.15,.6-.32,1.21-.51,1.83l-.99,2.92h3.04Z"/>
      <path class="cls-3" d="M137.1,17.07v10.11h-1.3v-10.11h1.3Z"/>
      <path class="cls-3" d="M139.38,27.18v-10.11h1.42l3.24,5.11c.75,1.18,1.33,2.25,1.82,3.29l.03-.02c-.12-1.35-.15-2.58-.15-4.15v-4.23h1.23v10.11h-1.32l-3.21-5.13c-.71-1.12-1.38-2.28-1.89-3.38h-.04c.07,1.29,.1,2.5,.1,4.18v4.32h-1.23Z"/>
      <path class="cls-3" d="M151.17,18.18h-3.08v-1.11h7.49v1.11h-3.09v9h-1.32v-9Z"/>
      <path class="cls-3" d="M161.93,22.44h-3.93v3.65h4.38v1.09h-5.68v-10.11h5.46v1.09h-4.16v3.19h3.93v1.08Z"/>
      <path class="cls-3" d="M164.08,17.21c.66-.13,1.61-.21,2.5-.21,1.4,0,2.29,.25,2.92,.82,.51,.45,.79,1.14,.79,1.92,0,1.33-.84,2.22-1.9,2.58v.04c.78,.27,1.24,.99,1.48,2.04,.33,1.41,.57,2.38,.78,2.78h-1.35c-.16-.29-.39-1.16-.67-2.42-.3-1.4-.84-1.92-2.02-1.96h-1.23v4.38h-1.3v-9.97Zm1.3,4.6h1.33c1.4,0,2.28-.76,2.28-1.92,0-1.3-.95-1.88-2.33-1.89-.63,0-1.08,.06-1.29,.12v3.69Z"/>
      <path class="cls-3" d="M172.15,27.18v-10.11h1.42l3.24,5.11c.75,1.18,1.33,2.25,1.82,3.29l.03-.02c-.12-1.35-.15-2.58-.15-4.15v-4.23h1.23v10.11h-1.32l-3.21-5.13c-.71-1.12-1.38-2.28-1.89-3.38h-.04c.07,1.29,.1,2.5,.1,4.18v4.32h-1.23Z"/>
      <path class="cls-3" d="M187.25,22.44h-3.93v3.65h4.38v1.09h-5.68v-10.11h5.46v1.09h-4.15v3.19h3.93v1.08Z"/>
      <path class="cls-3" d="M191.56,18.18h-3.08v-1.11h7.49v1.11h-3.09v9h-1.32v-9Z"/>
      <path class="cls-3" d="M200.27,17.19c.63-.1,1.46-.19,2.5-.19,1.29,0,2.24,.3,2.83,.84,.55,.48,.88,1.21,.88,2.12s-.27,1.63-.78,2.16c-.69,.74-1.82,1.11-3.09,1.11-.39,0-.75-.01-1.05-.09v4.05h-1.3v-9.99Zm1.3,4.88c.29,.08,.65,.11,1.08,.11,1.58,0,2.54-.77,2.54-2.16s-.95-1.98-2.38-1.98c-.57,0-1,.04-1.23,.1v3.93Z"/>
      <path class="cls-3" d="M208.25,17.21c.66-.13,1.6-.21,2.5-.21,1.39,0,2.29,.25,2.92,.82,.51,.45,.79,1.14,.79,1.92,0,1.33-.84,2.22-1.91,2.58v.04c.78,.27,1.25,.99,1.49,2.04,.33,1.41,.57,2.38,.78,2.78h-1.35c-.17-.29-.39-1.16-.67-2.42-.3-1.4-.84-1.92-2.03-1.96h-1.23v4.38h-1.3v-9.97Zm1.3,4.6h1.33c1.39,0,2.28-.76,2.28-1.92,0-1.3-.94-1.88-2.32-1.89-.63,0-1.08,.06-1.29,.12v3.69Z"/>
      <path class="cls-3" d="M225.01,22.02c0,3.48-2.12,5.33-4.69,5.33s-4.54-2.07-4.54-5.13c0-3.21,1.99-5.31,4.69-5.31s4.54,2.11,4.54,5.11Zm-7.84,.17c0,2.16,1.17,4.09,3.22,4.09s3.24-1.9,3.24-4.2c0-2.01-1.05-4.11-3.22-4.11s-3.24,2-3.24,4.21Z"/>
      <path class="cls-3" d="M228.92,27.18l-3.3-10.11h1.41l1.58,4.98c.43,1.37,.81,2.59,1.08,3.78h.03c.29-1.17,.71-2.44,1.16-3.76l1.71-4.99h1.39l-3.61,10.11h-1.44Z"/>
      <path class="cls-3" d="M236.38,17.07v10.11h-1.3v-10.11h1.3Z"/>
      <path class="cls-3" d="M238.66,27.18v-10.11h1.42l3.24,5.11c.75,1.18,1.33,2.25,1.81,3.29l.03-.02c-.12-1.35-.15-2.58-.15-4.15v-4.23h1.23v10.11h-1.32l-3.21-5.13c-.71-1.12-1.38-2.28-1.89-3.38h-.04c.08,1.29,.11,2.5,.11,4.18v4.32h-1.23Z"/>
      <path class="cls-3" d="M255.59,26.85c-.48,.24-1.44,.48-2.67,.48-2.85,0-5-1.8-5-5.11s2.15-5.31,5.28-5.31c1.26,0,2.05,.27,2.4,.45l-.31,1.07c-.5-.24-1.2-.42-2.04-.42-2.37,0-3.95,1.51-3.95,4.17,0,2.47,1.42,4.06,3.88,4.06,.79,0,1.61-.17,2.13-.42l.27,1.04Z"/>
      <path class="cls-3" d="M258.53,17.07v10.11h-1.3v-10.11h1.3Z"/>
      <path class="cls-3" d="M262.45,24l-1.05,3.18h-1.35l3.43-10.11h1.58l3.45,10.11h-1.4l-1.08-3.18h-3.58Zm3.32-1.02l-.99-2.91c-.22-.66-.38-1.26-.52-1.84h-.03c-.15,.6-.32,1.21-.51,1.83l-.99,2.92h3.04Z"/>
    </g>
    <line class="cls-4" x1="35" y1="92" x2="323.5" y2="92"/>
    <g>
      <path class="cls-2" d="M87.6,117.56l.04,.34c.08,.7-.17,1.44-.82,2.22-.58,.7-.9,1.18-.9,1.77,0,.66,.4,1.1,1.24,1.1,.46,0,.97-.14,1.31-.4l.31,.83c-.44,.3-1.18,.52-1.87,.52-1.48,0-2.17-.92-2.17-1.91,0-.88,.49-1.51,1.13-2.24,.56-.69,.77-1.24,.73-1.9v-.34s1,0,1,0Zm.27-1.85c0,.46-.3,.82-.77,.82s-.77-.36-.77-.82,.31-.81,.77-.81,.77,.34,.77,.81Z"/>
      <path class="cls-2" d="M90.76,121.27v-8.76h1.24l2.81,4.43c.65,1.03,1.16,1.95,1.57,2.85h.03c-.1-1.18-.13-2.25-.13-3.61v-3.67h1.07v8.76h-1.14l-2.78-4.45c-.61-.98-1.2-1.98-1.64-2.92h-.04c.07,1.12,.09,2.17,.09,3.63v3.74h-1.07Z"/>
      <path class="cls-2" d="M107.27,116.79c0,3.02-1.83,4.62-4.07,4.62s-3.94-1.79-3.94-4.45c0-2.78,1.73-4.6,4.07-4.6s3.94,1.83,3.94,4.43Zm-6.8,.14c0,1.87,1.01,3.55,2.79,3.55s2.81-1.65,2.81-3.64c0-1.74-.91-3.56-2.79-3.56s-2.81,1.73-2.81,3.65Z"/>
      <path class="cls-2" d="M112.28,119.89c.51,.31,1.25,.57,2.03,.57,1.16,0,1.83-.61,1.83-1.49,0-.82-.47-1.29-1.65-1.74-1.43-.51-2.31-1.25-2.31-2.48,0-1.36,1.13-2.38,2.83-2.38,.9,0,1.55,.21,1.94,.43l-.31,.92c-.29-.16-.87-.42-1.66-.42-1.2,0-1.65,.71-1.65,1.31,0,.82,.53,1.22,1.74,1.69,1.48,.57,2.24,1.29,2.24,2.57,0,1.35-1,2.52-3.07,2.52-.85,0-1.77-.25-2.24-.56l.29-.95Z"/>
      <path class="cls-2" d="M126.8,116.79c0,3.02-1.83,4.62-4.07,4.62s-3.94-1.79-3.94-4.45c0-2.78,1.73-4.6,4.07-4.6s3.94,1.83,3.94,4.43Zm-6.8,.14c0,1.87,1.01,3.55,2.79,3.55s2.81-1.65,2.81-3.64c0-1.74-.91-3.56-2.79-3.56s-2.81,1.73-2.81,3.65Z"/>
      <path class="cls-2" d="M128.58,119.89c.51,.31,1.25,.57,2.03,.57,1.16,0,1.83-.61,1.83-1.49,0-.82-.47-1.29-1.65-1.74-1.43-.51-2.31-1.25-2.31-2.48,0-1.36,1.13-2.38,2.83-2.38,.9,0,1.55,.21,1.94,.43l-.31,.92c-.29-.16-.87-.42-1.66-.42-1.2,0-1.65,.71-1.65,1.31,0,.82,.53,1.22,1.74,1.69,1.48,.57,2.24,1.29,2.24,2.57,0,1.35-1,2.52-3.07,2.52-.85,0-1.77-.25-2.24-.56l.29-.95Z"/>
      <path class="cls-2" d="M138.83,112.62c.49-.1,1.27-.18,2.07-.18,1.13,0,1.86,.19,2.41,.64,.45,.34,.73,.86,.73,1.55,0,.84-.56,1.59-1.48,1.92v.03c.83,.21,1.81,.9,1.81,2.2,0,.75-.3,1.33-.74,1.75-.61,.56-1.6,.82-3.03,.82-.78,0-1.38-.05-1.75-.1v-8.62Zm1.13,3.59h1.03c1.2,0,1.9-.62,1.9-1.47,0-1.03-.78-1.43-1.92-1.43-.52,0-.82,.04-1,.08v2.82Zm0,4.2c.22,.04,.55,.05,.95,.05,1.17,0,2.25-.43,2.25-1.7,0-1.2-1.03-1.69-2.26-1.69h-.94v3.34Z"/>
      <path class="cls-2" d="M147.48,112.5v8.76h-1.13v-8.76h1.13Z"/>
      <path class="cls-2" d="M149.92,112.61c.55-.09,1.26-.17,2.17-.17,1.12,0,1.94,.26,2.46,.73,.48,.42,.77,1.05,.77,1.83s-.23,1.42-.68,1.87c-.6,.64-1.57,.96-2.68,.96-.34,0-.65-.01-.91-.08v3.51h-1.13v-8.66Zm1.13,4.22c.25,.07,.56,.09,.94,.09,1.37,0,2.2-.66,2.2-1.87s-.82-1.71-2.07-1.71c-.49,0-.87,.04-1.07,.09v3.41Z"/>
      <path class="cls-2" d="M158.15,118.78l-.03-.34c-.08-.7,.16-1.47,.81-2.25,.58-.69,.91-1.2,.91-1.78,0-.66-.42-1.1-1.24-1.12-.47,0-.99,.16-1.31,.4l-.31-.82c.43-.31,1.17-.52,1.86-.52,1.5,0,2.17,.92,2.17,1.91,0,.88-.49,1.52-1.12,2.26-.57,.68-.78,1.25-.74,1.91v.34s-1,0-1,0Zm-.29,1.82c0-.48,.33-.82,.78-.82s.77,.34,.77,.82c0,.46-.3,.81-.78,.81-.46,0-.77-.35-.77-.81Z"/>
      <path class="cls-2" d="M166.37,112.76h2.87c1.77,0,3.13,.62,3.13,2.52s-1.36,2.66-3.13,2.66h-1.36v3.32h-1.51v-8.5Zm2.71,3.97c1.17,0,1.8-.48,1.8-1.45s-.63-1.32-1.8-1.32h-1.2v2.77h1.2Zm-.13,.8l1.09-.9,2.65,4.62h-1.7l-2.05-3.73Z"/>
      <path class="cls-2" d="M174.53,112.76h5.12v1.27h-3.61v2.18h3.06v1.27h-3.06v2.52h3.74v1.27h-5.25v-8.5Z"/>
      <path class="cls-2" d="M181.55,117.04c0-2.78,1.76-4.44,4.02-4.44,1.21,0,2.03,.53,2.57,1.08l-.81,.97c-.43-.42-.93-.74-1.72-.74-1.51,0-2.52,1.17-2.52,3.08s.9,3.12,2.61,3.12c.47,0,.94-.13,1.21-.38v-1.84h-1.6v-1.24h2.95v3.75c-.57,.57-1.55,1.01-2.71,1.01-2.29,0-4-1.57-4-4.38Z"/>
      <path class="cls-2" d="M190.63,112.76h1.51v8.5h-1.51v-8.5Z"/>
      <path class="cls-2" d="M194.18,120.18l.88-1.04c.61,.58,1.42,.97,2.21,.97,.96,0,1.48-.43,1.48-1.1,0-.7-.55-.92-1.32-1.25l-1.16-.5c-.84-.35-1.72-1.01-1.72-2.25,0-1.35,1.2-2.4,2.86-2.4,.99,0,1.96,.41,2.62,1.08l-.78,.96c-.54-.46-1.12-.73-1.85-.73-.81,0-1.33,.38-1.33,1,0,.67,.65,.92,1.35,1.2l1.15,.48c1.01,.42,1.72,1.06,1.72,2.29,0,1.38-1.14,2.53-3.05,2.53-1.15,0-2.26-.45-3.06-1.25Z"/>
      <path class="cls-2" d="M203.77,114.03h-2.46v-1.27h6.42v1.27h-2.45v7.23h-1.51v-7.23Z"/>
      <path class="cls-2" d="M209.62,112.76h2.87c1.77,0,3.13,.62,3.13,2.52s-1.36,2.66-3.13,2.66h-1.36v3.32h-1.51v-8.5Zm2.71,3.97c1.17,0,1.8-.48,1.8-1.45s-.63-1.32-1.8-1.32h-1.2v2.77h1.2Zm-.13,.8l1.09-.9,2.65,4.62h-1.7l-2.05-3.73Z"/>
      <path class="cls-2" d="M219.37,112.76h1.77l2.77,8.5h-1.6l-1.29-4.52c-.27-.9-.52-1.87-.77-2.8h-.05c-.23,.94-.48,1.9-.75,2.8l-1.3,4.52h-1.54l2.77-8.5Zm-1.13,5.02h4v1.18h-4v-1.18Z"/>
      <path class="cls-2" d="M226.31,114.03h-2.46v-1.27h6.42v1.27h-2.46v7.23h-1.51v-7.23Z"/>
      <path class="cls-2" d="M232.16,112.76h5.12v1.27h-3.61v2.18h3.06v1.27h-3.06v2.52h3.74v1.27h-5.25v-8.5Z"/>
      <path class="cls-2" d="M244.36,112.76h1.77l2.77,8.5h-1.6l-1.29-4.52c-.27-.9-.52-1.87-.77-2.8h-.05c-.23,.94-.48,1.9-.75,2.8l-1.3,4.52h-1.54l2.77-8.5Zm-1.13,5.02h4v1.18h-4v-1.18Z"/>
      <path class="cls-2" d="M249.84,116.98c0-2.75,1.53-4.37,3.75-4.37s3.75,1.63,3.75,4.37-1.53,4.44-3.75,4.44-3.75-1.69-3.75-4.44Zm5.95,0c0-1.91-.86-3.06-2.2-3.06s-2.2,1.15-2.2,3.06,.86,3.2,2.2,3.2,2.2-1.22,2.2-3.2Zm-2.96,4.24l1.54-.14c.33,.85,1.19,1.22,2.09,1.22,.38,0,.68-.06,.92-.13l.28,1.12c-.29,.13-.78,.24-1.36,.24-1.75,0-2.95-.98-3.47-2.3Z"/>
      <path class="cls-2" d="M259.47,117.54v-4.77h1.51v4.89c0,1.85,.69,2.46,1.72,2.46s1.76-.61,1.76-2.46v-4.89h1.45v4.77c0,2.79-1.24,3.88-3.21,3.88s-3.23-1.09-3.23-3.88Z"/>
      <path class="cls-2" d="M268.41,111.56l2.03-1.75,.82,.98-2.18,1.52-.67-.75Zm.09,1.2h1.51v8.5h-1.51v-8.5Z"/>
      <path class="cls-2" d="M84.03,122.89v-.65h81.26v.65H84.03Z"/>
      <path class="cls-2" d="M165.29,122.89v-.65h106.26v.65h-106.26Z"/>
    </g>
    <g>
      <path class="cls-8" d="M44.68,159.73c0-1.45,1.77-2.03,1.59-3.56h.8c.23,1.71-1.51,2.34-1.51,3.5,0,.59,.36,1.07,1.06,1.07,.49,0,.92-.24,1.26-.63l.52,.47c-.47,.52-1.09,.91-1.89,.91-1.11,0-1.84-.67-1.84-1.76Zm1.32-5.19c0-.4,.29-.69,.66-.69s.65,.28,.65,.69-.29,.7-.65,.7-.66-.28-.66-.7Z"/>
      <path class="cls-8" d="M50.21,152.11h1.81c2.22,0,3.41,1.29,3.41,3.58s-1.19,3.64-3.37,3.64h-1.85v-7.22Zm1.74,6.47c1.69,0,2.53-1.06,2.53-2.88s-.84-2.83-2.53-2.83h-.82v5.71h.82Z"/>
      <path class="cls-8" d="M57.12,152.3c0-.36,.27-.58,.62-.58s.62,.23,.62,.58-.27,.58-.62,.58-.62-.24-.62-.58Zm.17,1.68h.91v5.35h-.91v-5.35Z"/>
      <path class="cls-8" d="M59.81,154.04l.77-.05h2v.74h-2.76v-.69Zm.73-.9c0-1.09,.49-1.78,1.57-1.78,.33,0,.65,.08,.89,.18l-.19,.69c-.2-.09-.42-.14-.61-.14-.51,0-.75,.35-.75,1.04v6.19h-.9v-6.19Z"/>
      <path class="cls-8" d="M63.83,152.3c0-.36,.27-.58,.62-.58s.62,.23,.62,.58-.27,.58-.62,.58-.62-.24-.62-.58Zm.17,1.68h.9v5.35h-.9v-5.35Z"/>
      <path class="cls-8" d="M66.7,156.67c0-1.79,1.21-2.81,2.57-2.81,.7,0,1.19,.29,1.56,.63l-.46,.6c-.31-.28-.64-.47-1.06-.47-.97,0-1.68,.83-1.68,2.06s.67,2.05,1.65,2.05c.49,0,.92-.24,1.26-.53l.39,.61c-.48,.43-1.09,.68-1.73,.68-1.42,0-2.51-1.03-2.51-2.8Z"/>
      <path class="cls-8" d="M72.44,157.37v-3.39h.9v3.27c0,1,.3,1.42,1.01,1.42,.55,0,.93-.27,1.43-.9v-3.79h.9v5.35h-.75l-.08-.84h-.03c-.5,.58-1.03,.97-1.76,.97-1.13,0-1.63-.73-1.63-2.09Z"/>
      <path class="cls-8" d="M78.89,158.26v-6.76h.91v6.83c0,.28,.12,.39,.25,.39,.05,0,.1,0,.2-.02l.12,.69c-.13,.05-.28,.08-.52,.08-.68,0-.96-.43-.96-1.21Z"/>
      <path class="cls-8" d="M82.25,157.68v-2.96h-.79v-.69l.84-.05,.11-1.5h.76v1.5h1.45v.74h-1.45v2.97c0,.65,.21,1.03,.83,1.03,.19,0,.44-.07,.61-.14l.17,.68c-.3,.1-.66,.2-.99,.2-1.14,0-1.52-.72-1.52-1.79Z"/>
      <path class="cls-8" d="M85.64,157.95c0-1.17,1-1.75,3.28-2,0-.69-.23-1.35-1.1-1.35-.62,0-1.18,.29-1.59,.57l-.35-.62c.49-.32,1.24-.7,2.1-.7,1.3,0,1.86,.87,1.86,2.2v3.28h-.75l-.08-.64h-.03c-.51,.42-1.1,.77-1.77,.77-.9,0-1.57-.56-1.57-1.52Zm3.28,.08v-1.49c-1.79,.21-2.4,.65-2.4,1.34,0,.61,.41,.86,.94,.86s.94-.25,1.46-.71Z"/>
      <path class="cls-8" d="M91.53,156.67c0-1.73,1.1-2.81,2.31-2.81,.62,0,1.03,.23,1.5,.62l-.04-.92v-2.06h.9v7.84h-.75l-.08-.63h-.03c-.42,.42-.99,.76-1.62,.76-1.34,0-2.2-1.02-2.2-2.8Zm3.78,1.31v-2.8c-.46-.41-.87-.56-1.3-.56-.86,0-1.54,.82-1.54,2.04,0,1.28,.53,2.04,1.47,2.04,.5,0,.92-.24,1.37-.73Z"/>
      <path class="cls-8" d="M98.02,156.67c0-1.74,1.17-2.81,2.4-2.81,1.36,0,2.13,.98,2.13,2.51,0,.19-.02,.38-.04,.51h-3.6c.07,1.13,.76,1.87,1.78,1.87,.51,0,.94-.17,1.33-.43l.32,.59c-.47,.31-1.04,.55-1.77,.55-1.43,0-2.56-1.04-2.56-2.8Zm3.74-.44c0-1.07-.48-1.65-1.32-1.65-.75,0-1.42,.6-1.53,1.65h2.85Z"/>
      <path class="cls-8" d="M103.67,158.72l.45-.6c.46,.37,.94,.63,1.58,.63,.7,0,1.05-.37,1.05-.83,0-.55-.63-.79-1.22-1.01-.75-.27-1.59-.64-1.59-1.54,0-.86,.69-1.52,1.84-1.52,.67,0,1.25,.27,1.66,.6l-.43,.58c-.37-.27-.75-.48-1.22-.48-.67,0-.98,.36-.98,.77,0,.51,.58,.7,1.19,.93,.77,.29,1.63,.6,1.63,1.62,0,.87-.69,1.59-1.95,1.59-.76,0-1.49-.32-2-.74Z"/>
      <path class="cls-8" d="M111.87,153.99h.75l.08,.62h.03c.48-.4,1.09-.75,1.71-.75,1.38,0,2.12,1.07,2.12,2.72,0,1.82-1.09,2.89-2.32,2.89-.49,0-.99-.23-1.48-.62l.02,.93v1.81h-.9v-7.6Zm3.74,2.6c0-1.18-.4-1.97-1.41-1.97-.45,0-.91,.25-1.43,.73v2.8c.48,.41,.95,.56,1.3,.56,.88,0,1.54-.8,1.54-2.12Z"/>
      <path class="cls-8" d="M117.88,157.95c0-1.17,1-1.75,3.28-2,0-.69-.23-1.35-1.1-1.35-.62,0-1.17,.29-1.59,.57l-.35-.62c.49-.32,1.24-.7,2.1-.7,1.3,0,1.86,.87,1.86,2.2v3.28h-.75l-.08-.64h-.03c-.51,.42-1.1,.77-1.77,.77-.89,0-1.57-.56-1.57-1.52Zm3.28,.08v-1.49c-1.79,.21-2.4,.65-2.4,1.34,0,.61,.41,.86,.94,.86s.94-.25,1.46-.71Z"/>
      <path class="cls-8" d="M124.15,153.99h.75l.08,.97h.03c.37-.68,.92-1.11,1.52-1.11,.24,0,.4,.03,.57,.11l-.17,.79c-.18-.06-.3-.09-.52-.09-.45,0-.99,.33-1.35,1.23v3.43h-.9v-5.35Z"/>
      <path class="cls-8" d="M127.77,157.95c0-1.17,1-1.75,3.28-2,0-.69-.23-1.35-1.1-1.35-.62,0-1.17,.29-1.59,.57l-.35-.62c.49-.32,1.24-.7,2.1-.7,1.3,0,1.86,.87,1.86,2.2v3.28h-.75l-.08-.64h-.03c-.51,.42-1.1,.77-1.77,.77-.89,0-1.57-.56-1.57-1.52Zm3.28,.08v-1.49c-1.79,.21-2.4,.65-2.4,1.34,0,.61,.41,.86,.94,.86s.94-.25,1.46-.71Z"/>
      <path class="cls-8" d="M136.47,152.3c0-.36,.27-.58,.62-.58s.62,.23,.62,.58-.27,.58-.62,.58-.62-.24-.62-.58Zm.17,1.68h.9v5.35h-.9v-5.35Z"/>
      <path class="cls-8" d="M139.74,153.99h.75l.08,.77h.03c.51-.5,1.06-.9,1.79-.9,1.13,0,1.63,.73,1.63,2.09v3.39h-.91v-3.27c0-1-.3-1.42-1.01-1.42-.55,0-.93,.28-1.46,.82v3.87h-.9v-5.35Z"/>
      <path class="cls-8" d="M145.75,160.36c0-.46,.29-.89,.78-1.21v-.04c-.27-.17-.48-.46-.48-.88,0-.44,.31-.8,.59-.99v-.04c-.36-.28-.69-.8-.69-1.44,0-1.17,.92-1.9,2.01-1.9,.29,0,.56,.06,.75,.13h1.87v.7h-1.1c.25,.24,.44,.64,.44,1.1,0,1.15-.87,1.85-1.96,1.85-.26,0-.55-.06-.8-.18-.19,.16-.34,.34-.34,.63,0,.34,.22,.58,.94,.58h1.04c1.24,0,1.87,.39,1.87,1.28,0,.99-1.05,1.85-2.7,1.85-1.31,0-2.21-.51-2.21-1.43Zm4.03-.28c0-.5-.38-.66-1.08-.66h-.92c-.2,0-.46-.02-.69-.08-.38,.27-.55,.59-.55,.9,0,.57,.58,.94,1.55,.94,1.02,0,1.69-.53,1.69-1.09Zm-.69-4.32c0-.78-.51-1.25-1.14-1.25s-1.14,.46-1.14,1.25,.52,1.27,1.14,1.27,1.14-.49,1.14-1.27Z"/>
      <path class="cls-8" d="M152.09,153.99h.75l.08,.97h.03c.37-.68,.92-1.11,1.52-1.11,.24,0,.4,.03,.57,.11l-.17,.79c-.18-.06-.3-.09-.52-.09-.45,0-.99,.33-1.35,1.23v3.43h-.9v-5.35Z"/>
      <path class="cls-8" d="M155.8,156.67c0-1.74,1.17-2.81,2.4-2.81,1.36,0,2.13,.98,2.13,2.51,0,.19-.02,.38-.04,.51h-3.6c.06,1.13,.76,1.87,1.78,1.87,.51,0,.93-.17,1.33-.43l.32,.59c-.47,.31-1.04,.55-1.77,.55-1.43,0-2.56-1.04-2.56-2.8Zm3.74-.44c0-1.07-.48-1.65-1.32-1.65-.75,0-1.42,.6-1.53,1.65h2.85Z"/>
      <path class="cls-8" d="M161.46,158.72l.45-.6c.46,.37,.94,.63,1.58,.63,.7,0,1.05-.37,1.05-.83,0-.55-.63-.79-1.22-1.01-.75-.27-1.6-.64-1.6-1.54,0-.86,.69-1.52,1.85-1.52,.67,0,1.25,.27,1.66,.6l-.43,.58c-.37-.27-.75-.48-1.22-.48-.67,0-.98,.36-.98,.77,0,.51,.58,.7,1.19,.93,.77,.29,1.63,.6,1.63,1.62,0,.87-.69,1.59-1.95,1.59-.76,0-1.49-.32-2-.74Z"/>
      <path class="cls-8" d="M166.72,157.95c0-1.17,1-1.75,3.28-2,0-.69-.23-1.35-1.1-1.35-.62,0-1.18,.29-1.59,.57l-.35-.62c.49-.32,1.24-.7,2.1-.7,1.3,0,1.86,.87,1.86,2.2v3.28h-.75l-.08-.64h-.03c-.51,.42-1.1,.77-1.77,.77-.9,0-1.57-.56-1.57-1.52Zm3.28,.08v-1.49c-1.79,.21-2.4,.65-2.4,1.34,0,.61,.41,.86,.94,.86s.94-.25,1.46-.71Z"/>
      <path class="cls-8" d="M172.99,153.99h.75l.08,.97h.03c.37-.68,.92-1.11,1.52-1.11,.24,0,.4,.03,.57,.11l-.17,.79c-.18-.06-.3-.09-.52-.09-.45,0-.99,.33-1.35,1.23v3.43h-.91v-5.35Z"/>
      <path class="cls-8" d="M179.57,153.65c0-.59-.36-1.06-1.06-1.06-.49,0-.92,.24-1.26,.63l-.52-.47c.46-.52,1.09-.91,1.89-.91,1.11,0,1.84,.68,1.84,1.76,0,1.45-1.77,2.03-1.59,3.56h-.8c-.23-1.71,1.51-2.34,1.51-3.5Zm-1.74,5.13c0-.42,.29-.7,.66-.7s.66,.28,.66,.7-.3,.69-.66,.69-.66-.28-.66-.69Z"/>
      <path class="cls-8" d="M44.72,168.9c0-2.31,1.27-3.72,3.09-3.72s3.09,1.41,3.09,3.72-1.27,3.77-3.09,3.77-3.09-1.46-3.09-3.77Zm5.22,0c0-1.8-.85-2.91-2.14-2.91s-2.14,1.11-2.14,2.91,.85,2.96,2.14,2.96,2.14-1.16,2.14-2.96Z"/>
      <path class="cls-8" d="M52.75,171.46v-6.76h.9v6.83c0,.28,.12,.39,.25,.39,.05,0,.1,0,.2-.02l.12,.69c-.13,.05-.28,.08-.52,.08-.68,0-.96-.43-.96-1.21Z"/>
      <path class="cls-8" d="M55.18,167.19h.93l1.01,3.04c.16,.52,.33,1.07,.49,1.58h.04c.16-.51,.33-1.05,.49-1.58l1.01-3.04h.89l-1.89,5.35h-1.05l-1.93-5.35Z"/>
      <path class="cls-8" d="M61.32,165.5c0-.36,.27-.58,.62-.58s.62,.23,.62,.58-.27,.58-.62,.58-.62-.24-.62-.58Zm.17,1.68h.9v5.35h-.9v-5.35Z"/>
      <path class="cls-8" d="M64.21,169.87c0-1.73,1.09-2.81,2.31-2.81,.62,0,1.03,.23,1.5,.62l-.04-.92v-2.06h.91v7.84h-.75l-.08-.63h-.03c-.42,.42-.99,.76-1.62,.76-1.34,0-2.2-1.02-2.2-2.8Zm3.77,1.31v-2.8c-.46-.41-.87-.56-1.3-.56-.85,0-1.54,.83-1.54,2.04,0,1.28,.53,2.04,1.47,2.04,.49,0,.92-.24,1.37-.73Z"/>
      <path class="cls-8" d="M70.69,169.87c0-1.74,1.17-2.81,2.4-2.81,1.36,0,2.13,.98,2.13,2.51,0,.19-.02,.38-.04,.51h-3.6c.06,1.13,.76,1.87,1.78,1.87,.51,0,.93-.17,1.33-.43l.32,.59c-.47,.31-1.04,.55-1.77,.55-1.43,0-2.56-1.04-2.56-2.8Zm3.74-.44c0-1.07-.48-1.65-1.32-1.65-.75,0-1.42,.6-1.53,1.65h2.85Zm-1.96-3.65l1.56-1.83,.64,.6-1.73,1.68-.46-.45Z"/>
      <path class="cls-8" d="M79.54,167.19h.75l.08,.78h.03c.47-.51,1.03-.91,1.66-.91,.82,0,1.26,.39,1.48,1.02,.55-.6,1.11-1.02,1.76-1.02,1.1,0,1.63,.73,1.63,2.09v3.39h-.91v-3.27c0-1-.32-1.42-1-1.42-.41,0-.85,.27-1.34,.82v3.87h-.91v-3.27c0-1-.32-1.42-1-1.42-.4,0-.85,.27-1.34,.82v3.87h-.91v-5.35Z"/>
      <path class="cls-8" d="M88.89,165.5c0-.36,.27-.58,.62-.58s.62,.23,.62,.58-.27,.58-.62,.58-.62-.24-.62-.58Zm.17,1.68h.91v5.35h-.91v-5.35Z"/>
      <path class="cls-8" d="M94.8,169.55v-4.24h.92v4.26c0,1.73,.73,2.28,1.68,2.28s1.71-.55,1.71-2.28v-4.26h.88v4.24c0,2.32-1.12,3.11-2.59,3.11s-2.6-.8-2.6-3.11Z"/>
      <path class="cls-8" d="M101.6,171.92l.45-.6c.46,.37,.94,.63,1.58,.63,.7,0,1.05-.37,1.05-.83,0-.55-.63-.79-1.22-1.01-.75-.27-1.59-.64-1.59-1.54,0-.86,.69-1.52,1.84-1.52,.67,0,1.25,.27,1.66,.6l-.43,.58c-.37-.27-.75-.48-1.22-.48-.67,0-.98,.36-.98,.77,0,.51,.58,.7,1.19,.93,.77,.29,1.63,.6,1.63,1.62,0,.87-.69,1.59-1.95,1.59-.76,0-1.49-.32-2-.74Z"/>
      <path class="cls-8" d="M107.13,170.57v-3.39h.9v3.27c0,1,.3,1.42,1.01,1.42,.55,0,.93-.27,1.43-.9v-3.79h.9v5.35h-.75l-.08-.84h-.03c-.5,.58-1.03,.97-1.76,.97-1.13,0-1.63-.73-1.63-2.09Z"/>
      <path class="cls-8" d="M113.25,171.14c0-1.17,1-1.75,3.28-2,0-.69-.23-1.35-1.1-1.35-.62,0-1.18,.29-1.59,.57l-.35-.62c.49-.32,1.24-.7,2.1-.7,1.3,0,1.86,.87,1.86,2.2v3.28h-.75l-.08-.64h-.03c-.51,.42-1.1,.77-1.77,.77-.9,0-1.57-.56-1.57-1.52Zm3.28,.08v-1.49c-1.79,.22-2.4,.65-2.4,1.34,0,.61,.41,.86,.94,.86s.94-.25,1.46-.71Z"/>
      <path class="cls-8" d="M119.52,167.19h.75l.08,.97h.03c.37-.68,.92-1.11,1.52-1.11,.24,0,.4,.03,.57,.11l-.17,.79c-.18-.06-.3-.09-.52-.09-.45,0-.99,.33-1.35,1.23v3.43h-.91v-5.35Z"/>
      <path class="cls-8" d="M123.57,165.5c0-.36,.27-.58,.62-.58s.62,.23,.62,.58-.27,.58-.62,.58-.62-.24-.62-.58Zm.17,1.68h.91v5.35h-.91v-5.35Z"/>
      <path class="cls-8" d="M126.44,169.87c0-1.78,1.17-2.81,2.48-2.81s2.48,1.03,2.48,2.81-1.17,2.8-2.48,2.8-2.48-1.03-2.48-2.8Zm4.02,0c0-1.23-.62-2.06-1.54-2.06s-1.54,.83-1.54,2.06,.62,2.05,1.54,2.05,1.54-.82,1.54-2.05Z"/>
      <path class="cls-8" d="M132.7,173.87c.62-.27,.99-.76,.99-1.36l-.1-.81,.44,.66c-.12,.15-.29,.19-.46,.19-.35,0-.66-.22-.66-.63s.31-.63,.67-.63c.48,0,.77,.4,.77,1.06,0,.95-.55,1.69-1.44,2.06l-.22-.53Z"/>
      <path class="cls-8" d="M138.48,168.93c0-2.33,1.37-3.75,3.2-3.75,.88,0,1.56,.43,1.99,.89l-.5,.6c-.38-.41-.86-.68-1.47-.68-1.36,0-2.27,1.12-2.27,2.92s.87,2.95,2.24,2.95c.69,0,1.21-.3,1.67-.81l.5,.58c-.57,.66-1.28,1.04-2.22,1.04-1.8,0-3.15-1.39-3.15-3.74Z"/>
      <path class="cls-8" d="M145.49,171.46v-6.76h.91v6.83c0,.28,.12,.39,.25,.39,.05,0,.1,0,.2-.02l.12,.69c-.13,.05-.28,.08-.52,.08-.68,0-.96-.43-.96-1.21Z"/>
      <path class="cls-8" d="M148.36,171.14c0-1.17,1-1.75,3.28-2,0-.69-.23-1.35-1.1-1.35-.62,0-1.17,.29-1.59,.57l-.35-.62c.49-.32,1.24-.7,2.1-.7,1.3,0,1.86,.87,1.86,2.2v3.28h-.75l-.08-.64h-.03c-.51,.42-1.1,.77-1.77,.77-.89,0-1.57-.56-1.57-1.52Zm3.28,.08v-1.49c-1.79,.22-2.4,.65-2.4,1.34,0,.61,.41,.86,.94,.86s.94-.25,1.46-.71Z"/>
      <path class="cls-8" d="M153.86,167.19h.93l1.01,3.04c.16,.52,.33,1.07,.49,1.58h.04c.16-.51,.33-1.05,.49-1.58l1.01-3.04h.89l-1.89,5.35h-1.05l-1.93-5.35Z"/>
      <path class="cls-8" d="M159.73,169.87c0-1.74,1.17-2.81,2.4-2.81,1.36,0,2.13,.98,2.13,2.51,0,.19-.02,.38-.04,.51h-3.6c.07,1.13,.76,1.87,1.78,1.87,.51,0,.94-.17,1.33-.43l.32,.59c-.47,.31-1.04,.55-1.77,.55-1.43,0-2.56-1.04-2.56-2.8Zm3.74-.44c0-1.07-.48-1.65-1.32-1.65-.75,0-1.42,.6-1.53,1.65h2.85Z"/>
      <path class="cls-8" d="M168.03,174.73l.18-.72c.11,.04,.27,.08,.41,.08,.6,0,.98-.48,1.21-1.15l.12-.39-2.15-5.36h.93l1.09,2.96c.17,.46,.35,1.01,.52,1.51h.04c.15-.49,.3-1.03,.45-1.51l.95-2.96h.89l-2.01,5.79c-.38,1.06-.93,1.86-2,1.86-.25,0-.46-.04-.63-.11Z"/>
      <path class="cls-8" d="M176.1,164.72h.65l-2.94,9.57h-.65l2.94-9.57Z"/>
      <path class="cls-8" d="M177.46,169.87c0-1.78,1.17-2.81,2.48-2.81s2.48,1.03,2.48,2.81-1.17,2.8-2.48,2.8-2.48-1.03-2.48-2.8Zm4.02,0c0-1.23-.62-2.06-1.54-2.06s-1.54,.83-1.54,2.06,.62,2.05,1.54,2.05,1.54-.82,1.54-2.05Z"/>
      <path class="cls-8" d="M186.85,165.31h2.06c1.62,0,2.71,.54,2.71,2.13s-1.09,2.23-2.67,2.23h-1.19v2.86h-.92v-7.22Zm1.99,3.61c1.26,0,1.86-.46,1.86-1.49s-.64-1.38-1.91-1.38h-1.03v2.87h1.07Z"/>
      <path class="cls-8" d="M193.39,167.19h.75l.08,.97h.03c.37-.68,.92-1.11,1.52-1.11,.24,0,.4,.03,.57,.11l-.17,.79c-.18-.06-.3-.09-.52-.09-.45,0-.99,.33-1.35,1.23v3.43h-.91v-5.35Z"/>
      <path class="cls-8" d="M197.09,169.87c0-1.74,1.17-2.81,2.4-2.81,1.36,0,2.13,.98,2.13,2.51,0,.19-.02,.38-.04,.51h-3.6c.06,1.13,.76,1.87,1.78,1.87,.51,0,.93-.17,1.33-.43l.32,.59c-.47,.31-1.04,.55-1.77,.55-1.43,0-2.56-1.04-2.56-2.8Zm3.74-.44c0-1.07-.48-1.65-1.32-1.65-.75,0-1.42,.6-1.53,1.65h2.85Z"/>
      <path class="cls-8" d="M202.83,173.56c0-.46,.29-.89,.78-1.21v-.04c-.27-.17-.48-.46-.48-.88,0-.44,.31-.8,.59-.99v-.04c-.35-.28-.69-.8-.69-1.44,0-1.17,.92-1.9,2.01-1.9,.29,0,.56,.06,.75,.13h1.87v.7h-1.1c.25,.24,.44,.64,.44,1.1,0,1.15-.87,1.85-1.96,1.85-.26,0-.55-.06-.8-.18-.19,.16-.34,.34-.34,.63,0,.34,.22,.58,.94,.58h1.04c1.24,0,1.87,.39,1.87,1.28,0,.99-1.05,1.85-2.7,1.85-1.31,0-2.21-.51-2.21-1.43Zm4.03-.28c0-.5-.38-.66-1.08-.66h-.92c-.2,0-.46-.02-.69-.08-.38,.27-.55,.59-.55,.9,0,.57,.58,.94,1.55,.94,1.02,0,1.69-.53,1.69-1.09Zm-.69-4.32c0-.78-.51-1.25-1.14-1.25s-1.14,.46-1.14,1.25,.52,1.27,1.14,1.27,1.14-.49,1.14-1.27Z"/>
      <path class="cls-8" d="M209.1,170.57v-3.39h.91v3.27c0,1,.3,1.42,1.01,1.42,.55,0,.93-.27,1.43-.9v-3.79h.91v5.35h-.75l-.08-.84h-.03c-.5,.58-1.03,.97-1.76,.97-1.13,0-1.63-.73-1.63-2.09Z"/>
      <path class="cls-8" d="M215.55,167.19h.75l.08,.77h.03c.51-.5,1.06-.9,1.79-.9,1.13,0,1.63,.73,1.63,2.09v3.39h-.9v-3.27c0-1-.3-1.42-1.01-1.42-.55,0-.93,.28-1.46,.82v3.87h-.91v-5.35Z"/>
      <path class="cls-8" d="M222.12,170.88v-2.96h-.79v-.69l.84-.05,.11-1.5h.76v1.5h1.45v.74h-1.45v2.97c0,.65,.21,1.03,.83,1.03,.19,0,.44-.07,.61-.14l.17,.68c-.3,.1-.66,.2-.99,.2-1.14,0-1.52-.72-1.52-1.79Z"/>
      <path class="cls-8" d="M225.52,171.14c0-1.17,1-1.75,3.28-2,0-.69-.23-1.35-1.1-1.35-.62,0-1.18,.29-1.59,.57l-.35-.62c.49-.32,1.24-.7,2.1-.7,1.3,0,1.86,.87,1.86,2.2v3.28h-.75l-.08-.64h-.03c-.51,.42-1.1,.77-1.77,.77-.89,0-1.57-.56-1.57-1.52Zm3.28,.08v-1.49c-1.79,.22-2.4,.65-2.4,1.34,0,.61,.41,.86,.94,.86s.94-.25,1.46-.71Z"/>
      <path class="cls-8" d="M231.19,171.92l.45-.6c.46,.37,.94,.63,1.58,.63,.7,0,1.05-.37,1.05-.83,0-.55-.63-.79-1.22-1.01-.75-.27-1.59-.64-1.59-1.54,0-.86,.69-1.52,1.84-1.52,.67,0,1.25,.27,1.66,.6l-.43,.58c-.37-.27-.75-.48-1.22-.48-.67,0-.99,.36-.99,.77,0,.51,.58,.7,1.19,.93,.77,.29,1.63,.6,1.63,1.62,0,.87-.69,1.59-1.95,1.59-.76,0-1.49-.32-2-.74Z"/>
      <path class="cls-8" d="M239.01,169.87c0-1.73,1.09-2.81,2.31-2.81,.62,0,1.03,.23,1.5,.62l-.04-.92v-2.06h.9v7.84h-.75l-.08-.63h-.03c-.42,.42-.99,.76-1.62,.76-1.34,0-2.2-1.02-2.2-2.8Zm3.77,1.31v-2.8c-.46-.41-.87-.56-1.3-.56-.85,0-1.54,.83-1.54,2.04,0,1.28,.53,2.04,1.47,2.04,.5,0,.92-.24,1.37-.73Z"/>
      <path class="cls-8" d="M245.49,169.87c0-1.74,1.17-2.81,2.4-2.81,1.36,0,2.13,.98,2.13,2.51,0,.19-.02,.38-.04,.51h-3.6c.06,1.13,.76,1.87,1.78,1.87,.51,0,.93-.17,1.33-.43l.32,.59c-.47,.31-1.04,.55-1.77,.55-1.43,0-2.56-1.04-2.56-2.8Zm3.74-.44c0-1.07-.48-1.65-1.32-1.65-.75,0-1.42,.6-1.53,1.65h2.85Z"/>
      <path class="cls-8" d="M253.9,171.59l.55-.63c.52,.54,1.24,.89,1.99,.89,.95,0,1.51-.47,1.51-1.17,0-.74-.52-.97-1.21-1.27l-1.04-.46c-.67-.29-1.46-.8-1.46-1.86s.96-1.92,2.27-1.92c.86,0,1.62,.37,2.13,.89l-.49,.59c-.44-.42-.97-.68-1.64-.68-.81,0-1.35,.41-1.35,1.05,0,.7,.63,.96,1.2,1.19l1.03,.45c.84,.36,1.49,.86,1.49,1.93,0,1.14-.94,2.05-2.46,2.05-1.01,0-1.89-.41-2.53-1.07Z"/>
      <path class="cls-8" d="M260.21,169.87c0-1.74,1.17-2.81,2.4-2.81,1.36,0,2.13,.98,2.13,2.51,0,.19-.02,.38-.04,.51h-3.6c.07,1.13,.76,1.87,1.78,1.87,.51,0,.93-.17,1.33-.43l.32,.59c-.47,.31-1.04,.55-1.77,.55-1.43,0-2.56-1.04-2.56-2.8Zm3.74-.44c0-1.07-.48-1.65-1.32-1.65-.75,0-1.42,.6-1.53,1.65h2.85Z"/>
      <path class="cls-8" d="M265.94,173.56c0-.46,.29-.89,.78-1.21v-.04c-.27-.17-.48-.46-.48-.88,0-.44,.31-.8,.59-.99v-.04c-.35-.28-.69-.8-.69-1.44,0-1.17,.92-1.9,2.01-1.9,.29,0,.56,.06,.75,.13h1.87v.7h-1.1c.25,.24,.44,.64,.44,1.1,0,1.15-.87,1.85-1.96,1.85-.26,0-.55-.06-.8-.18-.19,.16-.34,.34-.34,.63,0,.34,.22,.58,.94,.58h1.04c1.24,0,1.87,.39,1.87,1.28,0,.99-1.05,1.85-2.7,1.85-1.31,0-2.21-.51-2.21-1.43Zm4.03-.28c0-.5-.38-.66-1.08-.66h-.92c-.2,0-.46-.02-.69-.08-.38,.27-.55,.59-.55,.9,0,.57,.58,.94,1.55,.94,1.02,0,1.69-.53,1.69-1.09Zm-.69-4.32c0-.78-.51-1.25-1.14-1.25s-1.14,.46-1.14,1.25,.52,1.27,1.14,1.27,1.14-.49,1.14-1.27Z"/>
      <path class="cls-8" d="M272.22,170.57v-3.39h.91v3.27c0,1,.3,1.42,1.01,1.42,.55,0,.93-.27,1.43-.9v-3.79h.91v5.35h-.75l-.08-.84h-.03c-.5,.58-1.03,.97-1.76,.97-1.13,0-1.63-.73-1.63-2.09Z"/>
      <path class="cls-8" d="M278.67,167.19h.75l.08,.97h.03c.37-.68,.92-1.11,1.52-1.11,.24,0,.4,.03,.57,.11l-.17,.79c-.18-.06-.3-.09-.52-.09-.45,0-.99,.33-1.35,1.23v3.43h-.91v-5.35Z"/>
      <path class="cls-8" d="M282.72,165.5c0-.36,.27-.58,.62-.58s.62,.23,.62,.58-.27,.58-.62,.58-.62-.24-.62-.58Zm.17,1.68h.91v5.35h-.91v-5.35Z"/>
      <path class="cls-8" d="M285.6,169.87c0-1.73,1.09-2.81,2.31-2.81,.62,0,1.03,.23,1.5,.62l-.04-.92v-2.06h.9v7.84h-.75l-.08-.63h-.03c-.42,.42-.99,.76-1.62,.76-1.34,0-2.2-1.02-2.2-2.8Zm3.77,1.31v-2.8c-.46-.41-.87-.56-1.3-.56-.85,0-1.54,.83-1.54,2.04,0,1.28,.53,2.04,1.47,2.04,.5,0,.92-.24,1.37-.73Z"/>
      <path class="cls-8" d="M292.15,171.14c0-1.17,1-1.75,3.28-2,0-.69-.23-1.35-1.1-1.35-.62,0-1.18,.29-1.59,.57l-.35-.62c.49-.32,1.24-.7,2.1-.7,1.3,0,1.86,.87,1.86,2.2v3.28h-.75l-.08-.64h-.03c-.51,.42-1.1,.77-1.77,.77-.89,0-1.57-.56-1.57-1.52Zm3.28,.08v-1.49c-1.79,.22-2.4,.65-2.4,1.34,0,.61,.41,.86,.94,.86s.94-.25,1.46-.71Z"/>
      <path class="cls-8" d="M298.04,169.87c0-1.73,1.09-2.81,2.31-2.81,.62,0,1.03,.23,1.5,.62l-.04-.92v-2.06h.9v7.84h-.75l-.08-.63h-.03c-.42,.42-.99,.76-1.62,.76-1.34,0-2.2-1.02-2.2-2.8Zm3.77,1.31v-2.8c-.46-.41-.87-.56-1.3-.56-.85,0-1.54,.83-1.54,2.04,0,1.28,.53,2.04,1.47,2.04,.5,0,.92-.24,1.37-.73Z"/>
      <path class="cls-8" d="M45.11,182.75v-4.24h.92v4.26c0,1.73,.73,2.28,1.68,2.28s1.71-.55,1.71-2.28v-4.26h.88v4.24c0,2.32-1.12,3.11-2.59,3.11s-2.59-.8-2.59-3.11Z"/>
      <path class="cls-8" d="M51.91,185.12l.45-.6c.46,.37,.94,.63,1.58,.63,.7,0,1.05-.37,1.05-.83,0-.55-.63-.79-1.22-1.01-.75-.27-1.59-.64-1.59-1.54,0-.86,.69-1.52,1.84-1.52,.67,0,1.25,.27,1.66,.6l-.43,.58c-.37-.27-.75-.48-1.22-.48-.67,0-.98,.36-.98,.77,0,.51,.58,.7,1.19,.93,.77,.29,1.63,.6,1.63,1.62,0,.87-.69,1.59-1.95,1.59-.76,0-1.49-.32-2-.74Z"/>
      <path class="cls-8" d="M57.43,183.77v-3.39h.91v3.27c0,1,.3,1.42,1.01,1.42,.55,0,.93-.27,1.43-.9v-3.79h.91v5.35h-.75l-.08-.84h-.03c-.5,.58-1.03,.97-1.76,.97-1.13,0-1.63-.73-1.63-2.09Z"/>
      <path class="cls-8" d="M63.55,184.34c0-1.17,1-1.75,3.28-2,0-.69-.23-1.35-1.1-1.35-.62,0-1.17,.29-1.59,.57l-.35-.62c.49-.32,1.24-.7,2.1-.7,1.3,0,1.86,.87,1.86,2.2v3.28h-.75l-.08-.64h-.03c-.51,.42-1.1,.77-1.77,.77-.89,0-1.57-.56-1.57-1.52Zm3.28,.08v-1.49c-1.79,.22-2.4,.65-2.4,1.34,0,.61,.41,.86,.94,.86s.94-.25,1.46-.71Z"/>
      <path class="cls-8" d="M69.83,180.39h.75l.08,.97h.03c.37-.68,.92-1.11,1.52-1.11,.24,0,.4,.03,.57,.11l-.17,.79c-.18-.06-.3-.09-.52-.09-.45,0-.99,.33-1.35,1.23v3.43h-.9v-5.35Z"/>
      <path class="cls-8" d="M73.87,178.7c0-.36,.27-.58,.62-.58s.62,.23,.62,.58-.27,.58-.62,.58-.62-.24-.62-.58Zm.17,1.68h.9v5.35h-.9v-5.35Z"/>
      <path class="cls-8" d="M76.74,183.07c0-1.78,1.17-2.81,2.48-2.81s2.48,1.03,2.48,2.81-1.17,2.8-2.48,2.8-2.48-1.03-2.48-2.8Zm4.02,0c0-1.23-.62-2.06-1.54-2.06s-1.54,.83-1.54,2.06,.62,2.05,1.54,2.05,1.54-.82,1.54-2.05Z"/>
      <path class="cls-8" d="M86.13,178.51h2.14c1.47,0,2.48,.5,2.48,1.77,0,.71-.38,1.35-1.05,1.57v.04c.86,.17,1.47,.74,1.47,1.73,0,1.42-1.12,2.11-2.73,2.11h-2.31v-7.22Zm1.99,3.07c1.23,0,1.74-.45,1.74-1.18,0-.84-.58-1.16-1.7-1.16h-1.11v2.34h1.07Zm.19,3.42c1.23,0,1.96-.44,1.96-1.42,0-.89-.7-1.3-1.96-1.3h-1.26v2.71h1.26Z"/>
      <path class="cls-8" d="M92.91,184.66v-6.76h.9v6.83c0,.28,.12,.39,.25,.39,.05,0,.1,0,.2-.02l.12,.69c-.13,.05-.28,.08-.52,.08-.68,0-.96-.43-.96-1.21Z"/>
      <path class="cls-8" d="M95.72,183.07c0-1.78,1.17-2.81,2.48-2.81s2.48,1.03,2.48,2.81-1.17,2.8-2.48,2.8-2.48-1.03-2.48-2.8Zm4.02,0c0-1.23-.62-2.06-1.54-2.06s-1.54,.83-1.54,2.06,.62,2.05,1.54,2.05,1.54-.82,1.54-2.05Z"/>
      <path class="cls-8" d="M105.87,186.09l.04-.97c-.43,.41-.99,.74-1.61,.74-1.34,0-2.2-1.02-2.2-2.8s1.09-2.81,2.31-2.81c.62,0,1.05,.23,1.53,.64h.03l.08-.51h.72v7.6h-.91v-1.9Zm0-1.72v-2.8c-.46-.41-.87-.56-1.3-.56-.86,0-1.54,.83-1.54,2.04,0,1.28,.53,2.04,1.47,2.04,.5,0,.92-.24,1.37-.73Z"/>
      <path class="cls-8" d="M108.9,183.77v-3.39h.9v3.27c0,1,.3,1.42,1.01,1.42,.55,0,.93-.27,1.43-.9v-3.79h.9v5.35h-.75l-.08-.84h-.03c-.5,.58-1.03,.97-1.76,.97-1.13,0-1.63-.73-1.63-2.09Z"/>
      <path class="cls-8" d="M114.96,183.07c0-1.74,1.17-2.81,2.4-2.81,1.36,0,2.13,.98,2.13,2.51,0,.19-.02,.38-.04,.51h-3.6c.06,1.13,.76,1.87,1.78,1.87,.51,0,.93-.17,1.33-.43l.32,.59c-.47,.31-1.04,.55-1.77,.55-1.43,0-2.56-1.04-2.56-2.8Zm3.74-.44c0-1.07-.48-1.65-1.32-1.65-.75,0-1.42,.6-1.53,1.65h2.85Z"/>
      <path class="cls-8" d="M120.72,184.34c0-1.17,1-1.75,3.28-2,0-.69-.23-1.35-1.1-1.35-.62,0-1.17,.29-1.59,.57l-.35-.62c.49-.32,1.24-.7,2.1-.7,1.3,0,1.86,.87,1.86,2.2v3.28h-.75l-.08-.64h-.03c-.51,.42-1.1,.77-1.77,.77-.89,0-1.57-.56-1.57-1.52Zm3.28,.08v-1.49c-1.79,.22-2.4,.65-2.4,1.34,0,.61,.41,.86,.94,.86s.94-.25,1.46-.71Z"/>
      <path class="cls-8" d="M126.61,183.07c0-1.73,1.09-2.81,2.31-2.81,.62,0,1.03,.23,1.5,.62l-.04-.92v-2.06h.91v7.84h-.75l-.08-.63h-.03c-.42,.42-.99,.76-1.62,.76-1.34,0-2.2-1.02-2.2-2.8Zm3.77,1.31v-2.8c-.46-.41-.87-.56-1.3-.56-.85,0-1.54,.83-1.54,2.04,0,1.28,.53,2.04,1.47,2.04,.49,0,.92-.24,1.37-.73Z"/>
      <path class="cls-8" d="M133.1,183.07c0-1.78,1.17-2.81,2.48-2.81s2.48,1.03,2.48,2.81-1.17,2.8-2.48,2.8-2.48-1.03-2.48-2.8Zm4.02,0c0-1.23-.62-2.06-1.54-2.06s-1.54,.83-1.54,2.06,.62,2.05,1.54,2.05,1.54-.82,1.54-2.05Z"/>
    </g>
    <g>
      <path class="cls-8" d="M109.14,212.11h2.26c1.47,0,2.53,.53,2.53,2.03s-1.06,2.14-2.53,2.14h-1.34v3.05h-.92v-7.22Zm2.13,3.42c1.12,0,1.74-.46,1.74-1.39s-.62-1.29-1.74-1.29h-1.21v2.68h1.21Zm-.05,.49l.72-.48,2.2,3.78h-1.04l-1.88-3.3Z"/>
      <path class="cls-8" d="M115.2,216.67c0-1.74,1.17-2.81,2.4-2.81,1.36,0,2.13,.98,2.13,2.51,0,.19-.02,.38-.04,.51h-3.6c.06,1.13,.76,1.87,1.78,1.87,.51,0,.93-.17,1.33-.43l.32,.59c-.47,.31-1.04,.55-1.77,.55-1.43,0-2.56-1.04-2.56-2.8Zm3.74-.44c0-1.07-.48-1.65-1.32-1.65-.75,0-1.42,.6-1.53,1.65h2.85Z"/>
      <path class="cls-8" d="M121.05,216.67c0-1.79,1.21-2.81,2.57-2.81,.7,0,1.19,.29,1.56,.63l-.46,.6c-.31-.28-.64-.47-1.06-.47-.97,0-1.68,.83-1.68,2.06s.67,2.05,1.65,2.05c.49,0,.92-.24,1.26-.53l.39,.61c-.48,.43-1.09,.68-1.73,.68-1.42,0-2.51-1.03-2.51-2.8Z"/>
      <path class="cls-8" d="M126.23,216.67c0-1.79,1.17-2.81,2.48-2.81s2.48,1.03,2.48,2.81-1.17,2.8-2.48,2.8-2.48-1.03-2.48-2.8Zm4.02,0c0-1.23-.62-2.06-1.54-2.06s-1.54,.83-1.54,2.06,.62,2.05,1.54,2.05,1.54-.82,1.54-2.05Z"/>
      <path class="cls-8" d="M132.99,213.99h.75l.08,.78h.03c.47-.51,1.03-.91,1.66-.91,.82,0,1.26,.39,1.48,1.02,.55-.6,1.11-1.02,1.76-1.02,1.1,0,1.63,.73,1.63,2.09v3.39h-.9v-3.27c0-1-.32-1.42-1-1.42-.41,0-.85,.27-1.34,.82v3.87h-.9v-3.27c0-1-.32-1.42-1-1.42-.4,0-.85,.27-1.34,.82v3.87h-.9v-5.35Z"/>
      <path class="cls-8" d="M142.11,216.67c0-1.74,1.17-2.81,2.4-2.81,1.36,0,2.13,.98,2.13,2.51,0,.19-.02,.38-.04,.51h-3.6c.06,1.13,.76,1.87,1.78,1.87,.51,0,.93-.17,1.33-.43l.32,.59c-.47,.31-1.04,.55-1.77,.55-1.43,0-2.56-1.04-2.56-2.8Zm3.74-.44c0-1.07-.48-1.65-1.32-1.65-.75,0-1.42,.6-1.53,1.65h2.85Z"/>
      <path class="cls-8" d="M148.36,213.99h.75l.08,.77h.03c.51-.5,1.06-.9,1.79-.9,1.13,0,1.63,.73,1.63,2.09v3.39h-.9v-3.27c0-1-.3-1.42-1.01-1.42-.55,0-.92,.28-1.46,.82v3.87h-.91v-5.35Z"/>
      <path class="cls-8" d="M154.39,216.67c0-1.73,1.09-2.81,2.31-2.81,.62,0,1.03,.23,1.5,.62l-.04-.92v-2.06h.91v7.84h-.75l-.08-.63h-.03c-.42,.42-.98,.76-1.62,.76-1.34,0-2.2-1.02-2.2-2.8Zm3.77,1.31v-2.8c-.46-.41-.87-.56-1.3-.56-.85,0-1.54,.82-1.54,2.04,0,1.28,.53,2.04,1.47,2.04,.49,0,.92-.24,1.37-.73Z"/>
      <path class="cls-8" d="M160.94,217.95c0-1.17,1-1.75,3.28-2,0-.69-.23-1.35-1.1-1.35-.62,0-1.17,.29-1.59,.57l-.35-.62c.49-.32,1.24-.7,2.1-.7,1.3,0,1.86,.87,1.86,2.2v3.28h-.75l-.08-.64h-.03c-.51,.42-1.1,.77-1.77,.77-.89,0-1.57-.56-1.57-1.52Zm3.28,.08v-1.49c-1.79,.21-2.4,.65-2.4,1.34,0,.61,.41,.86,.94,.86s.94-.25,1.46-.71Z"/>
      <path class="cls-8" d="M166.81,216.67c0-1.79,1.21-2.81,2.57-2.81,.7,0,1.19,.29,1.56,.63l-.46,.6c-.31-.28-.64-.47-1.06-.47-.97,0-1.68,.83-1.68,2.06s.67,2.05,1.65,2.05c.49,0,.92-.24,1.26-.53l.39,.61c-.48,.43-1.09,.68-1.73,.68-1.42,0-2.51-1.03-2.51-2.8Z"/>
      <path class="cls-8" d="M172.46,212.3c0-.36,.27-.58,.62-.58s.62,.23,.62,.58-.27,.58-.62,.58-.62-.24-.62-.58Zm.17,1.68h.91v5.35h-.91v-5.35Z"/>
      <path class="cls-8" d="M175.33,216.67c0-1.79,1.17-2.81,2.48-2.81s2.48,1.03,2.48,2.81-1.17,2.8-2.48,2.8-2.48-1.03-2.48-2.8Zm4.02,0c0-1.23-.62-2.06-1.54-2.06s-1.54,.83-1.54,2.06,.62,2.05,1.54,2.05,1.54-.82,1.54-2.05Z"/>
      <path class="cls-8" d="M182.08,213.99h.75l.08,.77h.03c.51-.5,1.06-.9,1.79-.9,1.13,0,1.63,.73,1.63,2.09v3.39h-.91v-3.27c0-1-.3-1.42-1.01-1.42-.55,0-.93,.28-1.46,.82v3.87h-.9v-5.35Z"/>
      <path class="cls-8" d="M188.1,216.67c0-1.74,1.17-2.81,2.4-2.81,1.36,0,2.13,.98,2.13,2.51,0,.19-.02,.38-.04,.51h-3.6c.06,1.13,.76,1.87,1.78,1.87,.51,0,.93-.17,1.33-.43l.32,.59c-.47,.31-1.04,.55-1.77,.55-1.43,0-2.56-1.04-2.56-2.8Zm3.74-.44c0-1.07-.48-1.65-1.32-1.65-.75,0-1.42,.6-1.53,1.65h2.85Z"/>
      <path class="cls-8" d="M193.75,218.72l.45-.6c.46,.37,.94,.63,1.58,.63,.7,0,1.05-.37,1.05-.83,0-.55-.63-.79-1.22-1.01-.75-.27-1.59-.64-1.59-1.54,0-.86,.69-1.52,1.84-1.52,.67,0,1.25,.27,1.66,.6l-.43,.58c-.37-.27-.75-.48-1.22-.48-.67,0-.98,.36-.98,.77,0,.51,.58,.7,1.19,.93,.77,.29,1.63,.6,1.63,1.62,0,.87-.69,1.59-1.95,1.59-.76,0-1.49-.32-2-.74Z"/>
      <path class="cls-8" d="M201.57,216.67c0-1.73,1.09-2.81,2.31-2.81,.62,0,1.03,.23,1.5,.62l-.04-.92v-2.06h.91v7.84h-.75l-.08-.63h-.03c-.42,.42-.99,.76-1.62,.76-1.34,0-2.2-1.02-2.2-2.8Zm3.77,1.31v-2.8c-.46-.41-.87-.56-1.3-.56-.86,0-1.54,.82-1.54,2.04,0,1.28,.53,2.04,1.47,2.04,.5,0,.92-.24,1.37-.73Z"/>
      <path class="cls-8" d="M208.05,216.67c0-1.74,1.17-2.81,2.4-2.81,1.36,0,2.13,.98,2.13,2.51,0,.19-.02,.38-.04,.51h-3.6c.07,1.13,.76,1.87,1.78,1.87,.51,0,.93-.17,1.33-.43l.32,.59c-.47,.31-1.04,.55-1.77,.55-1.43,0-2.56-1.04-2.56-2.8Zm3.74-.44c0-1.07-.48-1.65-1.32-1.65-.75,0-1.42,.6-1.53,1.65h2.85Z"/>
      <path class="cls-8" d="M216.46,218.39l.55-.63c.52,.54,1.24,.89,1.99,.89,.95,0,1.51-.47,1.51-1.17,0-.74-.52-.97-1.2-1.27l-1.04-.46c-.67-.29-1.46-.8-1.46-1.86s.96-1.92,2.27-1.92c.86,0,1.62,.37,2.13,.89l-.49,.59c-.44-.42-.97-.68-1.64-.68-.81,0-1.35,.41-1.35,1.05,0,.7,.63,.96,1.2,1.2l1.03,.45c.83,.36,1.49,.86,1.49,1.93,0,1.14-.94,2.05-2.46,2.05-1.01,0-1.89-.41-2.53-1.07Z"/>
      <path class="cls-8" d="M222.77,216.67c0-1.74,1.17-2.81,2.4-2.81,1.36,0,2.13,.98,2.13,2.51,0,.19-.02,.38-.04,.51h-3.6c.06,1.13,.76,1.87,1.78,1.87,.51,0,.93-.17,1.33-.43l.32,.59c-.47,.31-1.04,.55-1.77,.55-1.43,0-2.56-1.04-2.56-2.8Zm3.74-.44c0-1.07-.48-1.65-1.32-1.65-.75,0-1.42,.6-1.53,1.65h2.85Z"/>
      <path class="cls-8" d="M228.5,220.36c0-.46,.29-.89,.78-1.21v-.04c-.27-.17-.48-.46-.48-.88,0-.44,.31-.8,.59-.99v-.04c-.35-.28-.69-.8-.69-1.44,0-1.17,.92-1.9,2.01-1.9,.29,0,.56,.06,.75,.13h1.87v.7h-1.1c.25,.24,.44,.64,.44,1.1,0,1.15-.86,1.85-1.96,1.85-.26,0-.55-.06-.8-.18-.19,.16-.34,.34-.34,.63,0,.34,.22,.58,.94,.58h1.04c1.24,0,1.87,.39,1.87,1.28,0,.99-1.05,1.85-2.7,1.85-1.31,0-2.21-.51-2.21-1.43Zm4.03-.28c0-.5-.38-.66-1.08-.66h-.92c-.2,0-.46-.02-.7-.08-.38,.27-.55,.59-.55,.9,0,.57,.58,.94,1.55,.94s1.69-.53,1.69-1.09Zm-.69-4.32c0-.78-.51-1.25-1.14-1.25s-1.14,.46-1.14,1.25,.52,1.27,1.14,1.27,1.14-.49,1.14-1.27Z"/>
      <path class="cls-8" d="M234.78,217.37v-3.39h.91v3.27c0,1,.3,1.42,1.01,1.42,.55,0,.92-.27,1.43-.9v-3.79h.91v5.35h-.75l-.08-.84h-.03c-.5,.58-1.03,.97-1.76,.97-1.13,0-1.63-.73-1.63-2.09Z"/>
      <path class="cls-8" d="M241.23,213.99h.75l.08,.97h.03c.37-.68,.92-1.11,1.52-1.11,.24,0,.4,.03,.57,.11l-.17,.79c-.18-.06-.3-.09-.52-.09-.45,0-.99,.33-1.35,1.23v3.43h-.91v-5.35Z"/>
      <path class="cls-8" d="M245.28,212.3c0-.36,.27-.58,.62-.58s.62,.23,.62,.58-.27,.58-.62,.58-.62-.24-.62-.58Zm.17,1.68h.91v5.35h-.91v-5.35Z"/>
      <path class="cls-8" d="M248.16,216.67c0-1.73,1.09-2.81,2.31-2.81,.62,0,1.03,.23,1.5,.62l-.04-.92v-2.06h.9v7.84h-.75l-.08-.63h-.03c-.42,.42-.99,.76-1.62,.76-1.34,0-2.2-1.02-2.2-2.8Zm3.77,1.31v-2.8c-.46-.41-.87-.56-1.3-.56-.85,0-1.54,.82-1.54,2.04,0,1.28,.53,2.04,1.47,2.04,.5,0,.92-.24,1.37-.73Z"/>
      <path class="cls-8" d="M254.71,217.95c0-1.17,1-1.75,3.28-2,0-.69-.23-1.35-1.1-1.35-.62,0-1.18,.29-1.59,.57l-.35-.62c.49-.32,1.24-.7,2.1-.7,1.3,0,1.86,.87,1.86,2.2v3.28h-.75l-.08-.64h-.03c-.51,.42-1.1,.77-1.77,.77-.89,0-1.57-.56-1.57-1.52Zm3.28,.08v-1.49c-1.79,.21-2.4,.65-2.4,1.34,0,.61,.41,.86,.94,.86s.94-.25,1.46-.71Z"/>
      <path class="cls-8" d="M260.6,216.67c0-1.73,1.09-2.81,2.31-2.81,.62,0,1.03,.23,1.5,.62l-.04-.92v-2.06h.9v7.84h-.75l-.08-.63h-.03c-.42,.42-.99,.76-1.62,.76-1.34,0-2.2-1.02-2.2-2.8Zm3.77,1.31v-2.8c-.46-.41-.87-.56-1.3-.56-.85,0-1.54,.82-1.54,2.04,0,1.28,.53,2.04,1.47,2.04,.5,0,.92-.24,1.37-.73Z"/>
    </g>
    <g>
      <path class="cls-7" d="M96.83,44.11h4.16v.78h-3.24v2.26h2.74v.78h-2.74v2.63h3.35v.78h-4.27v-7.22Z"/>
      <path class="cls-7" d="M102.94,50.26v-6.76h.91v6.83c0,.28,.12,.39,.25,.39,.05,0,.1,0,.2-.02l.12,.69c-.13,.05-.28,.08-.52,.08-.68,0-.96-.43-.96-1.21Z"/>
      <path class="cls-7" d="M108.89,49.68v-2.96h-.8v-.69l.84-.05,.11-1.5h.76v1.5h1.45v.74h-1.45v2.97c0,.65,.21,1.03,.83,1.03,.19,0,.44-.07,.61-.14l.18,.68c-.3,.1-.66,.2-.99,.2-1.14,0-1.52-.72-1.52-1.79Z"/>
      <path class="cls-7" d="M112.3,48.67c0-1.79,1.17-2.81,2.48-2.81s2.48,1.03,2.48,2.81-1.17,2.8-2.48,2.8-2.48-1.03-2.48-2.8Zm4.02,0c0-1.23-.62-2.06-1.54-2.06s-1.54,.83-1.54,2.06,.62,2.05,1.54,2.05,1.54-.82,1.54-2.05Z"/>
      <path class="cls-7" d="M119.01,43.5h.89v5.31h.03l2.28-2.82h1l-1.79,2.15,2.03,3.2h-.99l-1.56-2.57-1,1.17v1.4h-.89v-7.84Z"/>
      <path class="cls-7" d="M124.25,48.67c0-1.74,1.17-2.81,2.4-2.81,1.36,0,2.13,.98,2.13,2.51,0,.19-.02,.38-.04,.51h-3.6c.07,1.13,.76,1.87,1.78,1.87,.51,0,.94-.17,1.33-.43l.32,.59c-.47,.31-1.04,.55-1.77,.55-1.43,0-2.56-1.04-2.56-2.8Zm3.74-.44c0-1.07-.48-1.65-1.32-1.65-.75,0-1.42,.6-1.53,1.65h2.85Z"/>
      <path class="cls-7" d="M130.5,45.99h.75l.08,.77h.03c.51-.5,1.06-.9,1.79-.9,1.13,0,1.63,.73,1.63,2.09v3.39h-.9v-3.27c0-1-.3-1.42-1.01-1.42-.55,0-.93,.28-1.46,.82v3.87h-.91v-5.35Z"/>
      <path class="cls-7" d="M139.35,44.3c0-.36,.27-.58,.62-.58s.62,.23,.62,.58-.27,.58-.62,.58-.62-.24-.62-.58Zm.17,1.68h.9v5.35h-.9v-5.35Z"/>
      <path class="cls-7" d="M142.62,45.99h.75l.08,.77h.03c.51-.5,1.06-.9,1.79-.9,1.13,0,1.63,.73,1.63,2.09v3.39h-.91v-3.27c0-1-.3-1.42-1.01-1.42-.55,0-.93,.28-1.46,.82v3.87h-.9v-5.35Z"/>
      <path class="cls-7" d="M148.62,52.36c0-.46,.29-.89,.78-1.21v-.04c-.27-.17-.48-.46-.48-.88,0-.44,.31-.8,.59-.99v-.04c-.35-.28-.69-.8-.69-1.44,0-1.17,.92-1.9,2.01-1.9,.29,0,.56,.06,.76,.13h1.87v.7h-1.1c.25,.24,.44,.64,.44,1.1,0,1.15-.87,1.85-1.96,1.85-.26,0-.55-.06-.8-.18-.19,.16-.34,.34-.34,.63,0,.34,.22,.58,.94,.58h1.04c1.24,0,1.87,.39,1.87,1.28,0,.99-1.05,1.85-2.7,1.85-1.31,0-2.21-.51-2.21-1.43Zm4.03-.28c0-.5-.38-.66-1.08-.66h-.92c-.2,0-.46-.02-.7-.08-.38,.27-.54,.59-.54,.9,0,.57,.58,.94,1.55,.94s1.69-.53,1.69-1.09Zm-.69-4.32c0-.78-.51-1.25-1.14-1.25s-1.14,.46-1.14,1.25,.52,1.27,1.14,1.27,1.14-.49,1.14-1.27Z"/>
      <path class="cls-7" d="M154.97,45.99h.75l.08,.97h.03c.37-.68,.92-1.11,1.52-1.11,.24,0,.4,.03,.57,.11l-.17,.79c-.18-.06-.3-.09-.52-.09-.45,0-.99,.33-1.35,1.23v3.43h-.9v-5.35Z"/>
      <path class="cls-7" d="M158.67,48.67c0-1.74,1.17-2.81,2.4-2.81,1.36,0,2.13,.98,2.13,2.51,0,.19-.02,.38-.04,.51h-3.6c.06,1.13,.76,1.87,1.78,1.87,.51,0,.93-.17,1.33-.43l.32,.59c-.47,.31-1.04,.55-1.77,.55-1.43,0-2.56-1.04-2.56-2.8Zm3.74-.44c0-1.07-.48-1.65-1.32-1.65-.75,0-1.42,.6-1.53,1.65h2.85Z"/>
      <path class="cls-7" d="M164.33,50.72l.45-.6c.46,.37,.94,.63,1.58,.63,.7,0,1.05-.37,1.05-.83,0-.55-.63-.79-1.22-1.01-.75-.27-1.59-.64-1.59-1.54,0-.86,.69-1.52,1.84-1.52,.67,0,1.25,.27,1.66,.6l-.43,.58c-.37-.27-.75-.48-1.22-.48-.67,0-.98,.36-.98,.77,0,.51,.58,.7,1.19,.93,.77,.29,1.63,.6,1.63,1.62,0,.87-.69,1.59-1.95,1.59-.76,0-1.49-.32-2-.74Z"/>
      <path class="cls-7" d="M169.6,49.95c0-1.17,1.01-1.75,3.29-2,0-.69-.23-1.35-1.1-1.35-.62,0-1.18,.29-1.6,.57l-.35-.62c.49-.32,1.24-.7,2.1-.7,1.3,0,1.86,.87,1.86,2.2v3.28h-.75l-.08-.64h-.03c-.51,.42-1.11,.77-1.77,.77-.9,0-1.57-.56-1.57-1.52Zm3.29,.08v-1.49c-1.79,.21-2.4,.65-2.4,1.34,0,.61,.41,.86,.94,.86s.94-.25,1.46-.71Z"/>
      <path class="cls-7" d="M175.49,48.67c0-1.73,1.09-2.81,2.31-2.81,.62,0,1.03,.23,1.5,.62l-.04-.92v-2.06h.91v7.84h-.75l-.08-.63h-.03c-.42,.42-.99,.76-1.62,.76-1.34,0-2.2-1.02-2.2-2.8Zm3.77,1.31v-2.8c-.46-.41-.87-.56-1.3-.56-.86,0-1.54,.82-1.54,2.04,0,1.28,.53,2.04,1.47,2.04,.5,0,.92-.24,1.37-.73Z"/>
      <path class="cls-7" d="M181.97,48.67c0-1.79,1.17-2.81,2.48-2.81s2.48,1.03,2.48,2.81-1.17,2.8-2.48,2.8-2.48-1.03-2.48-2.8Zm4.02,0c0-1.23-.62-2.06-1.54-2.06s-1.54,.83-1.54,2.06,.62,2.05,1.54,2.05,1.54-.82,1.54-2.05Z"/>
      <path class="cls-7" d="M190.88,48.67c0-1.74,1.17-2.81,2.4-2.81,1.36,0,2.13,.98,2.13,2.51,0,.19-.02,.38-.04,.51h-3.6c.06,1.13,.76,1.87,1.78,1.87,.51,0,.93-.17,1.33-.43l.32,.59c-.47,.31-1.04,.55-1.77,.55-1.43,0-2.56-1.04-2.56-2.8Zm3.74-.44c0-1.07-.48-1.65-1.32-1.65-.75,0-1.42,.6-1.53,1.65h2.85Z"/>
      <path class="cls-7" d="M196.54,50.72l.45-.6c.46,.37,.94,.63,1.58,.63,.7,0,1.05-.37,1.05-.83,0-.55-.63-.79-1.22-1.01-.75-.27-1.6-.64-1.6-1.54,0-.86,.69-1.52,1.85-1.52,.67,0,1.25,.27,1.66,.6l-.43,.58c-.37-.27-.75-.48-1.22-.48-.67,0-.98,.36-.98,.77,0,.51,.58,.7,1.19,.93,.77,.29,1.63,.6,1.63,1.62,0,.87-.69,1.59-1.95,1.59-.76,0-1.49-.32-2-.74Z"/>
      <path class="cls-7" d="M204.57,44.3c0-.36,.27-.58,.62-.58s.62,.23,.62,.58-.27,.58-.62,.58-.62-.24-.62-.58Zm.17,1.68h.91v5.35h-.91v-5.35Z"/>
      <path class="cls-7" d="M207.83,45.99h.75l.08,.77h.03c.51-.5,1.06-.9,1.79-.9,1.13,0,1.63,.73,1.63,2.09v3.39h-.9v-3.27c0-1-.3-1.42-1.01-1.42-.55,0-.92,.28-1.46,.82v3.87h-.91v-5.35Z"/>
      <path class="cls-7" d="M213.85,48.67c0-1.79,1.21-2.81,2.57-2.81,.7,0,1.19,.29,1.56,.63l-.46,.6c-.31-.28-.64-.47-1.06-.47-.97,0-1.68,.83-1.68,2.06s.67,2.05,1.65,2.05c.49,0,.92-.24,1.26-.53l.39,.61c-.48,.43-1.09,.68-1.73,.68-1.42,0-2.51-1.03-2.51-2.8Z"/>
      <path class="cls-7" d="M219.03,48.67c0-1.79,1.17-2.81,2.48-2.81s2.48,1.03,2.48,2.81-1.17,2.8-2.48,2.8-2.48-1.03-2.48-2.8Zm4.02,0c0-1.23-.62-2.06-1.54-2.06s-1.54,.83-1.54,2.06,.62,2.05,1.54,2.05,1.54-.82,1.54-2.05Z"/>
      <path class="cls-7" d="M225.79,45.99h.75l.08,.97h.03c.37-.68,.92-1.11,1.52-1.11,.24,0,.4,.03,.57,.11l-.17,.79c-.18-.06-.3-.09-.52-.09-.45,0-.99,.33-1.35,1.23v3.43h-.9v-5.35Z"/>
      <path class="cls-7" d="M230,45.99h.75l.08,.97h.03c.37-.68,.92-1.11,1.52-1.11,.24,0,.4,.03,.57,.11l-.17,.79c-.18-.06-.3-.09-.52-.09-.45,0-.99,.33-1.35,1.23v3.43h-.9v-5.35Z"/>
      <path class="cls-7" d="M233.7,48.67c0-1.74,1.17-2.81,2.4-2.81,1.36,0,2.13,.98,2.13,2.51,0,.19-.02,.38-.04,.51h-3.6c.06,1.13,.76,1.87,1.78,1.87,.51,0,.93-.17,1.33-.43l.32,.59c-.47,.31-1.04,.55-1.77,.55-1.43,0-2.56-1.04-2.56-2.8Zm3.74-.44c0-1.07-.48-1.65-1.32-1.65-.75,0-1.42,.6-1.53,1.65h2.85Z"/>
      <path class="cls-7" d="M239.55,48.67c0-1.79,1.21-2.81,2.57-2.81,.7,0,1.19,.29,1.56,.63l-.46,.6c-.31-.28-.64-.47-1.06-.47-.97,0-1.68,.83-1.68,2.06s.67,2.05,1.65,2.05c.49,0,.92-.24,1.26-.53l.39,.61c-.48,.43-1.09,.68-1.73,.68-1.42,0-2.51-1.03-2.51-2.8Z"/>
      <path class="cls-7" d="M245.41,49.68v-2.96h-.8v-.69l.84-.05,.11-1.5h.76v1.5h1.45v.74h-1.45v2.97c0,.65,.21,1.03,.83,1.03,.19,0,.44-.07,.61-.14l.17,.68c-.3,.1-.66,.2-.99,.2-1.14,0-1.52-.72-1.52-1.79Z"/>
      <path class="cls-7" d="M248.82,48.67c0-1.79,1.17-2.81,2.48-2.81s2.48,1.03,2.48,2.81-1.17,2.8-2.48,2.8-2.48-1.03-2.48-2.8Zm4.02,0c0-1.23-.62-2.06-1.54-2.06s-1.54,.83-1.54,2.06,.62,2.05,1.54,2.05,1.54-.82,1.54-2.05Z"/>
      <path class="cls-2" d="M255.39,46.81c0-.42,.29-.7,.66-.7s.65,.28,.65,.7-.29,.69-.65,.69-.66-.28-.66-.69Zm0,3.97c0-.42,.29-.7,.66-.7s.65,.28,.65,.7-.29,.69-.65,.69-.66-.28-.66-.69Z"/>
      <path class="cls-2" d="M80.73,57.31h2.06c1.62,0,2.71,.54,2.71,2.13s-1.09,2.23-2.67,2.23h-1.19v2.86h-.92v-7.22Zm1.99,3.61c1.26,0,1.87-.46,1.87-1.49s-.64-1.38-1.91-1.38h-1.03v2.87h1.07Z"/>
      <path class="cls-2" d="M86.61,61.87c0-1.78,1.17-2.81,2.48-2.81s2.48,1.03,2.48,2.81-1.17,2.8-2.48,2.8-2.48-1.03-2.48-2.8Zm4.02,0c0-1.23-.62-2.06-1.54-2.06s-1.54,.83-1.54,2.06,.62,2.05,1.54,2.05,1.54-.82,1.54-2.05Z"/>
      <path class="cls-2" d="M93.36,59.19h.75l.08,.97h.03c.37-.68,.92-1.11,1.52-1.11,.24,0,.4,.03,.57,.11l-.17,.79c-.18-.06-.3-.09-.52-.09-.45,0-.99,.33-1.35,1.23v3.43h-.9v-5.35Z"/>
      <path class="cls-2" d="M99.6,59.24l.77-.05h2v.74h-2.76v-.69Zm.73-.9c0-1.09,.49-1.78,1.57-1.78,.32,0,.65,.08,.89,.18l-.19,.69c-.2-.09-.42-.14-.61-.14-.5,0-.75,.35-.75,1.04v6.19h-.9v-6.19Z"/>
      <path class="cls-2" d="M103.23,63.14c0-1.17,1.01-1.75,3.29-2,0-.69-.23-1.35-1.1-1.35-.62,0-1.17,.29-1.59,.57l-.35-.62c.49-.32,1.24-.7,2.1-.7,1.3,0,1.86,.87,1.86,2.2v3.28h-.75l-.08-.64h-.03c-.51,.42-1.11,.77-1.77,.77-.89,0-1.57-.56-1.57-1.52Zm3.29,.08v-1.49c-1.79,.22-2.4,.65-2.4,1.34,0,.61,.41,.86,.94,.86s.94-.25,1.46-.71Z"/>
      <path class="cls-2" d="M108.73,59.19h.93l1.01,3.04c.16,.52,.33,1.07,.49,1.58h.04c.16-.51,.33-1.05,.49-1.58l1.01-3.04h.89l-1.89,5.35h-1.05l-1.93-5.35Z"/>
      <path class="cls-2" d="M114.59,61.87c0-1.78,1.17-2.81,2.48-2.81s2.48,1.03,2.48,2.81-1.17,2.8-2.48,2.8-2.48-1.03-2.48-2.8Zm4.02,0c0-1.23-.62-2.06-1.54-2.06s-1.54,.83-1.54,2.06,.62,2.05,1.54,2.05,1.54-.82,1.54-2.05Z"/>
      <path class="cls-2" d="M121.35,59.19h.75l.08,.97h.03c.37-.68,.92-1.11,1.52-1.11,.24,0,.4,.03,.57,.11l-.17,.79c-.18-.06-.3-.09-.52-.09-.45,0-.99,.33-1.35,1.23v3.43h-.9v-5.35Z"/>
      <path class="cls-2" d="M127.99,57.5c0-.36,.27-.58,.62-.58s.62,.23,.62,.58-.27,.58-.62,.58-.62-.24-.62-.58Zm.17,1.68h.9v5.35h-.9v-5.35Z"/>
      <path class="cls-2" d="M131.26,59.19h.75l.08,.77h.03c.51-.5,1.06-.9,1.79-.9,1.13,0,1.63,.73,1.63,2.09v3.39h-.91v-3.27c0-1-.3-1.42-1.01-1.42-.55,0-.93,.28-1.46,.82v3.87h-.9v-5.35Z"/>
      <path class="cls-2" d="M137.27,65.56c0-.46,.29-.89,.78-1.21v-.04c-.27-.17-.48-.46-.48-.88,0-.44,.31-.8,.59-.99v-.04c-.36-.28-.69-.8-.69-1.44,0-1.17,.92-1.9,2.01-1.9,.29,0,.56,.06,.75,.13h1.87v.7h-1.1c.25,.24,.44,.64,.44,1.1,0,1.15-.87,1.85-1.96,1.85-.26,0-.55-.06-.8-.18-.19,.16-.34,.34-.34,.63,0,.34,.22,.58,.94,.58h1.04c1.24,0,1.87,.39,1.87,1.28,0,.99-1.05,1.85-2.7,1.85-1.31,0-2.21-.51-2.21-1.43Zm4.03-.28c0-.5-.38-.66-1.08-.66h-.92c-.2,0-.46-.02-.69-.08-.38,.27-.55,.59-.55,.9,0,.57,.58,.94,1.55,.94,1.02,0,1.69-.53,1.69-1.09Zm-.69-4.32c0-.78-.51-1.25-1.14-1.25s-1.14,.46-1.14,1.25,.52,1.27,1.14,1.27,1.14-.49,1.14-1.27Z"/>
      <path class="cls-2" d="M143.61,59.19h.75l.08,.97h.03c.37-.68,.92-1.11,1.52-1.11,.24,0,.4,.03,.57,.11l-.17,.79c-.18-.06-.3-.09-.52-.09-.45,0-.99,.33-1.35,1.23v3.43h-.9v-5.35Z"/>
      <path class="cls-2" d="M147.32,61.87c0-1.74,1.17-2.81,2.4-2.81,1.36,0,2.13,.98,2.13,2.51,0,.19-.02,.38-.04,.51h-3.6c.06,1.13,.76,1.87,1.78,1.87,.51,0,.93-.17,1.33-.43l.32,.59c-.47,.31-1.04,.55-1.77,.55-1.43,0-2.56-1.04-2.56-2.8Zm3.74-.44c0-1.07-.48-1.65-1.32-1.65-.75,0-1.42,.6-1.53,1.65h2.85Z"/>
      <path class="cls-2" d="M152.97,63.92l.45-.6c.46,.37,.94,.63,1.58,.63,.7,0,1.05-.37,1.05-.83,0-.55-.63-.79-1.22-1.01-.75-.27-1.59-.64-1.59-1.54,0-.86,.69-1.52,1.84-1.52,.67,0,1.25,.27,1.66,.6l-.43,.58c-.37-.27-.75-.48-1.22-.48-.67,0-.98,.36-.98,.77,0,.51,.58,.7,1.19,.93,.77,.29,1.63,.6,1.63,1.62,0,.87-.69,1.59-1.95,1.59-.76,0-1.49-.32-2-.74Z"/>
      <path class="cls-2" d="M158.24,63.14c0-1.17,1.01-1.75,3.29-2,0-.69-.23-1.35-1.1-1.35-.62,0-1.18,.29-1.6,.57l-.35-.62c.49-.32,1.24-.7,2.1-.7,1.3,0,1.86,.87,1.86,2.2v3.28h-.75l-.08-.64h-.03c-.51,.42-1.11,.77-1.77,.77-.9,0-1.57-.56-1.57-1.52Zm3.29,.08v-1.49c-1.79,.22-2.4,.65-2.4,1.34,0,.61,.41,.86,.94,.86s.94-.25,1.46-.71Zm-1.59-5.45l1.56-1.83,.64,.6-1.73,1.68-.46-.45Z"/>
      <path class="cls-2" d="M166.72,61.87c0-1.73,1.1-2.81,2.31-2.81,.62,0,1.03,.23,1.5,.62l-.04-.92v-2.06h.9v7.84h-.75l-.08-.63h-.03c-.42,.42-.99,.76-1.62,.76-1.34,0-2.2-1.02-2.2-2.8Zm3.78,1.31v-2.8c-.46-.41-.87-.56-1.3-.56-.86,0-1.54,.83-1.54,2.04,0,1.28,.53,2.04,1.47,2.04,.5,0,.92-.24,1.37-.73Z"/>
      <path class="cls-2" d="M173.21,61.87c0-1.74,1.17-2.81,2.4-2.81,1.36,0,2.13,.98,2.13,2.51,0,.19-.02,.38-.04,.51h-3.6c.07,1.13,.76,1.87,1.78,1.87,.51,0,.94-.17,1.33-.43l.32,.59c-.47,.31-1.04,.55-1.77,.55-1.43,0-2.56-1.04-2.56-2.8Zm3.74-.44c0-1.07-.48-1.65-1.32-1.65-.75,0-1.42,.6-1.53,1.65h2.85Z"/>
      <path class="cls-2" d="M182.05,59.19h.75l.08,.77h.03c.51-.5,1.06-.9,1.79-.9,1.13,0,1.63,.73,1.63,2.09v3.39h-.9v-3.27c0-1-.3-1.42-1.01-1.42-.55,0-.93,.28-1.46,.82v3.87h-.91v-5.35Z"/>
      <path class="cls-2" d="M188.4,62.57v-3.39h.9v3.27c0,1,.3,1.42,1.01,1.42,.55,0,.93-.27,1.43-.9v-3.79h.9v5.35h-.75l-.08-.84h-.03c-.5,.58-1.03,.97-1.76,.97-1.13,0-1.63-.73-1.63-2.09Z"/>
      <path class="cls-2" d="M194.45,61.87c0-1.74,1.17-2.81,2.4-2.81,1.36,0,2.13,.98,2.13,2.51,0,.19-.02,.38-.04,.51h-3.6c.06,1.13,.76,1.87,1.78,1.87,.51,0,.93-.17,1.33-.43l.32,.59c-.47,.31-1.04,.55-1.77,.55-1.43,0-2.56-1.04-2.56-2.8Zm3.74-.44c0-1.07-.48-1.65-1.32-1.65-.75,0-1.42,.6-1.53,1.65h2.85Z"/>
      <path class="cls-2" d="M199.98,59.19h.93l1.01,3.04c.16,.52,.33,1.07,.49,1.58h.04c.16-.51,.33-1.05,.49-1.58l1.01-3.04h.89l-1.89,5.35h-1.05l-1.93-5.35Z"/>
      <path class="cls-2" d="M205.85,61.87c0-1.78,1.17-2.81,2.48-2.81s2.48,1.03,2.48,2.81-1.17,2.8-2.48,2.8-2.48-1.03-2.48-2.8Zm4.02,0c0-1.23-.62-2.06-1.54-2.06s-1.54,.83-1.54,2.06,.62,2.05,1.54,2.05,1.54-.82,1.54-2.05Z"/>
      <path class="cls-2" d="M215.31,62.88v-2.96h-.8v-.69l.84-.05,.11-1.5h.76v1.5h1.45v.74h-1.45v2.97c0,.65,.21,1.03,.83,1.03,.19,0,.44-.07,.61-.14l.17,.68c-.3,.1-.66,.2-.99,.2-1.14,0-1.52-.72-1.52-1.79Z"/>
      <path class="cls-2" d="M219.2,62.57v-3.39h.91v3.27c0,1,.3,1.42,1.01,1.42,.55,0,.93-.27,1.43-.9v-3.79h.91v5.35h-.75l-.08-.84h-.03c-.5,.58-1.03,.97-1.76,.97-1.13,0-1.63-.73-1.63-2.09Z"/>
      <path class="cls-2" d="M228.33,57.31h2.14c1.47,0,2.48,.5,2.48,1.77,0,.71-.38,1.35-1.05,1.57v.04c.86,.17,1.47,.74,1.47,1.73,0,1.42-1.12,2.11-2.73,2.11h-2.31v-7.22Zm1.99,3.07c1.23,0,1.74-.45,1.74-1.18,0-.84-.58-1.16-1.7-1.16h-1.11v2.34h1.07Zm.19,3.42c1.23,0,1.96-.44,1.96-1.42,0-.89-.7-1.3-1.96-1.3h-1.26v2.71h1.26Z"/>
      <path class="cls-2" d="M235.19,57.31h.92v7.22h-.92v-7.22Z"/>
      <path class="cls-2" d="M238.48,57.31h2.06c1.62,0,2.71,.54,2.71,2.13s-1.09,2.23-2.67,2.23h-1.19v2.86h-.92v-7.22Zm1.99,3.61c1.26,0,1.87-.46,1.87-1.49s-.64-1.38-1.91-1.38h-1.03v2.87h1.07Z"/>
      <path class="cls-2" d="M249.2,58.09h-2.18v-.78h5.29v.78h-2.18v6.44h-.92v-6.44Z"/>
      <path class="cls-2" d="M252.78,61.87c0-1.78,1.17-2.81,2.48-2.81s2.48,1.03,2.48,2.81-1.17,2.8-2.48,2.8-2.48-1.03-2.48-2.8Zm4.02,0c0-1.23-.62-2.06-1.54-2.06s-1.54,.83-1.54,2.06,.62,2.05,1.54,2.05,1.54-.82,1.54-2.05Z"/>
      <path class="cls-2" d="M259.49,56.7h.89v5.31h.03l2.28-2.82h1l-1.79,2.15,2.03,3.2h-.99l-1.56-2.57-1,1.17v1.4h-.89v-7.84Z"/>
      <path class="cls-2" d="M264.74,61.87c0-1.74,1.17-2.81,2.4-2.81,1.36,0,2.13,.98,2.13,2.51,0,.19-.02,.38-.04,.51h-3.6c.06,1.13,.76,1.87,1.78,1.87,.51,0,.93-.17,1.33-.43l.32,.59c-.47,.31-1.04,.55-1.77,.55-1.43,0-2.56-1.04-2.56-2.8Zm3.74-.44c0-1.07-.48-1.65-1.32-1.65-.75,0-1.42,.6-1.53,1.65h2.85Z"/>
      <path class="cls-2" d="M270.99,59.19h.75l.08,.77h.03c.51-.5,1.06-.9,1.79-.9,1.13,0,1.63,.73,1.63,2.09v3.39h-.9v-3.27c0-1-.3-1.42-1.01-1.42-.55,0-.93,.28-1.46,.82v3.87h-.91v-5.35Z"/>
    </g>
    <g>
      <path class="cls-8" d="M34.93,157.11l2.32-.86,1.47-.55v-.04l-1.47-.55-2.32-.86v-.79l4.72,1.86v.72l-4.72,1.85v-.79Z"/>
      <path class="cls-8" d="M34.93,170.31l2.32-.86,1.47-.55v-.04l-1.47-.55-2.32-.86v-.79l4.72,1.85v.72l-4.72,1.86v-.79Z"/>
      <path class="cls-8" d="M34.93,183.51l2.32-.86,1.47-.55v-.04l-1.47-.55-2.32-.86v-.79l4.72,1.85v.72l-4.72,1.86v-.79Z"/>
    </g>
    <path class="cls-8" d="M104.83,214.56v-1.49c0-1.1-.74-2.11-1.82-2.35-1.51-.33-2.85,.82-2.85,2.28v1.56h-1.17v5.44h7v-5.44h-1.17Zm-3.89-1.56c0-.96,.88-1.73,1.88-1.52,.73,.15,1.23,.84,1.23,1.58v1.49h-3.11v-1.56Zm4.28,6.22h-5.44v-3.89h5.44v3.89Z"/>
    <circle class="cls-2" cx="302.12" cy="79.56" r="8.5"/>
    <line class="cls-6" x1="24" y1="201" x2="332" y2="201"/>
    <path class="cls-5" d="M300.71,76.17l4.33,3.38-4.33,3.38,.19,.24,4.63-3.61-4.63-3.61-.18,.23Z"/>
  </g>
</svg>