<?xml version="1.0" encoding="utf-8"?>
<!-- Generator: Adobe Illustrator 26.4.1, SVG Export Plug-In . SVG Version: 6.00 Build 0)  -->
<svg version="1.1" id="Layer_1" xmlns="http://www.w3.org/2000/svg" xmlns:xlink="http://www.w3.org/1999/xlink" x="0px" y="0px"
	 viewBox="0 0 113 47" style="enable-background:new 0 0 113 47;" xml:space="preserve">
<style type="text/css">
	.st0{fill:#00693C;}
	.st1{fill:#999999;}
</style>
<g>
	<path class="st0" d="M7.6,9.8h2.5c2,0,3.3,0.7,3.3,2.6s-1.3,2.7-3.2,2.7H8.7v3.5H7.6C7.6,18.6,7.6,9.8,7.6,9.8z M10,14.2
		c1.5,0,2.3-0.6,2.3-1.8s-0.8-1.7-2.3-1.7H8.7v3.5H10L10,14.2z"/>
	<path class="st0" d="M14.2,15.4c0-2.2,1.4-3.4,3-3.4s3,1.2,3,3.4s-1.4,3.4-3,3.4S14.2,17.5,14.2,15.4z M19.1,15.4
		c0-1.5-0.8-2.5-1.9-2.5s-1.9,1-1.9,2.5s0.8,2.5,1.9,2.5S19.1,16.8,19.1,15.4z"/>
	<path class="st0" d="M21.9,12.1h0.9l0.1,1.2h0c0.5-0.8,1.1-1.3,1.8-1.3c0.3,0,0.5,0,0.7,0.1l-0.2,1c-0.2-0.1-0.4-0.1-0.6-0.1
		c-0.5,0-1.2,0.4-1.6,1.5v4.1h-1.1L21.9,12.1L21.9,12.1z"/>
	<path class="st0" d="M28.5,12.2l0.9-0.1h2.4V13h-3.3L28.5,12.2L28.5,12.2z M29.4,11.1c0-1.3,0.6-2.1,1.9-2.1c0.4,0,0.8,0.1,1.1,0.2
		L32.1,10c-0.2-0.1-0.5-0.2-0.7-0.2c-0.6,0-0.9,0.4-0.9,1.3v7.5h-1.1C29.4,18.6,29.4,11.1,29.4,11.1z"/>
	<path class="st0" d="M32.4,16.9c0-1.4,1.2-2.1,4-2.4c0-0.8-0.3-1.6-1.3-1.6c-0.8,0-1.4,0.4-1.9,0.7l-0.4-0.8
		c0.6-0.4,1.5-0.8,2.5-0.8c1.6,0,2.2,1.1,2.2,2.7v4h-0.9l-0.1-0.8h0c-0.6,0.5-1.3,0.9-2.1,0.9C33.2,18.7,32.4,18.1,32.4,16.9
		L32.4,16.9z M36.4,17v-1.8c-2.2,0.3-2.9,0.8-2.9,1.6c0,0.7,0.5,1,1.1,1S35.8,17.6,36.4,17L36.4,17z"/>
	<path class="st0" d="M38.6,12.1h1.1l1.2,3.7c0.2,0.6,0.4,1.3,0.6,1.9h0c0.2-0.6,0.4-1.3,0.6-1.9l1.2-3.7h1.1l-2.3,6.5h-1.3
		C40.9,18.6,38.6,12.1,38.6,12.1z"/>
	<path class="st0" d="M45.2,15.4c0-2.2,1.4-3.4,3-3.4s3,1.2,3,3.4s-1.4,3.4-3,3.4S45.2,17.5,45.2,15.4z M50.1,15.4
		c0-1.5-0.8-2.5-1.9-2.5s-1.9,1-1.9,2.5s0.8,2.5,1.9,2.5S50.1,16.8,50.1,15.4z"/>
	<path class="st0" d="M52.9,12.1h0.9l0.1,1.2h0c0.5-0.8,1.1-1.3,1.8-1.3c0.3,0,0.5,0,0.7,0.1l-0.2,1c-0.2-0.1-0.4-0.1-0.6-0.1
		c-0.5,0-1.2,0.4-1.6,1.5v4.1h-1.1V12.1L52.9,12.1z"/>
	<path class="st0" d="M59.7,15.4c0-2.1,1.4-3.4,2.9-3.4c1.7,0,2.6,1.2,2.6,3c0,0.2,0,0.5-0.1,0.6h-4.4c0.1,1.4,0.9,2.3,2.2,2.3
		c0.6,0,1.1-0.2,1.6-0.5l0.4,0.7c-0.6,0.4-1.3,0.7-2.1,0.7C61.1,18.7,59.7,17.5,59.7,15.4z M64.2,14.8c0-1.3-0.6-2-1.6-2
		c-0.9,0-1.7,0.7-1.8,2H64.2L64.2,14.8z"/>
	<path class="st0" d="M66.1,17.8l0.5-0.7c0.6,0.5,1.1,0.8,1.9,0.8c0.8,0,1.3-0.5,1.3-1c0-0.7-0.8-1-1.5-1.2
		c-0.9-0.3-1.9-0.8-1.9-1.9c0-1,0.8-1.8,2.2-1.8c0.8,0,1.5,0.3,2,0.7l-0.5,0.7c-0.4-0.3-0.9-0.6-1.5-0.6c-0.8,0-1.2,0.4-1.2,0.9
		c0,0.6,0.7,0.9,1.4,1.1c0.9,0.4,2,0.7,2,2c0,1-0.8,1.9-2.4,1.9C67.6,18.7,66.7,18.3,66.1,17.8L66.1,17.8z"/>
	<path class="st0" d="M72.3,12.1h0.9l0.1,0.8h0c0.6-0.5,1.3-0.9,2.1-0.9c1.7,0,2.6,1.3,2.6,3.3c0,2.2-1.3,3.5-2.8,3.5
		c-0.6,0-1.2-0.3-1.8-0.8l0,1.1v2.2h-1.1C72.3,21.3,72.3,12.1,72.3,12.1z M76.9,15.3c0-1.4-0.5-2.4-1.7-2.4c-0.6,0-1.1,0.3-1.7,0.9
		v3.4c0.6,0.5,1.2,0.7,1.6,0.7C76.1,17.8,76.9,16.9,76.9,15.3z"/>
	<path class="st0" d="M79.3,15.4c0-2.1,1.4-3.4,2.9-3.4c1.7,0,2.6,1.2,2.6,3c0,0.2,0,0.5-0.1,0.6h-4.4c0.1,1.4,0.9,2.3,2.2,2.3
		c0.6,0,1.1-0.2,1.6-0.5l0.4,0.7c-0.6,0.4-1.3,0.7-2.1,0.7C80.6,18.7,79.3,17.5,79.3,15.4z M83.8,14.8c0-1.3-0.6-2-1.6-2
		c-0.9,0-1.7,0.7-1.8,2H83.8L83.8,14.8z"/>
	<path class="st0" d="M86.3,12.1h0.9l0.1,1.2h0c0.4-0.8,1.1-1.3,1.8-1.3c0.3,0,0.5,0,0.7,0.1l-0.2,1c-0.2-0.1-0.4-0.1-0.6-0.1
		c-0.6,0-1.2,0.4-1.6,1.5v4.1h-1.1L86.3,12.1L86.3,12.1z"/>
	<path class="st0" d="M90.3,15.4c0-2.1,1.4-3.4,2.9-3.4c1.7,0,2.6,1.2,2.6,3c0,0.2,0,0.5-0.1,0.6h-4.4c0.1,1.4,0.9,2.3,2.2,2.3
		c0.6,0,1.1-0.2,1.6-0.5l0.4,0.7c-0.6,0.4-1.3,0.7-2.1,0.7C91.7,18.7,90.3,17.5,90.3,15.4L90.3,15.4z M94.9,14.8c0-1.3-0.6-2-1.6-2
		c-0.9,0-1.7,0.7-1.8,2H94.9L94.9,14.8z"/>
	<path class="st0" d="M97.2,17.9c0-0.5,0.4-0.9,0.8-0.9s0.8,0.3,0.8,0.9s-0.4,0.8-0.8,0.8S97.2,18.4,97.2,17.9z"/>
	<path class="st0" d="M100.5,17.9c0-0.5,0.4-0.9,0.8-0.9s0.8,0.3,0.8,0.9s-0.4,0.8-0.8,0.8S100.5,18.4,100.5,17.9z"/>
	<path class="st0" d="M103.8,17.9c0-0.5,0.4-0.9,0.8-0.9s0.8,0.3,0.8,0.9s-0.4,0.8-0.8,0.8S103.8,18.4,103.8,17.9z"/>
</g>
<g>
	<path class="st1" d="M32.5,25.7v4.5h-0.6v-4.5H32.5z"/>
	<path class="st1" d="M33.6,27.8c0-0.3,0-0.6,0-0.9h0.5l0,0.5h0c0.2-0.3,0.5-0.6,1.1-0.6c0.4,0,1.1,0.3,1.1,1.4v1.9h-0.6v-1.9
		c0-0.5-0.2-0.9-0.7-0.9c-0.4,0-0.7,0.3-0.8,0.6c0,0.1,0,0.2,0,0.3v1.9h-0.6V27.8z"/>
	<path class="st1" d="M40,27c0,0.2,0,0.5,0,0.9v1.9c0,0.7-0.1,1.2-0.5,1.5c-0.3,0.3-0.8,0.4-1.2,0.4c-0.4,0-0.8-0.1-1.1-0.3l0.1-0.4
		c0.2,0.1,0.5,0.3,0.9,0.3c0.6,0,1-0.3,1-1.1v-0.4h0c-0.2,0.3-0.5,0.5-1,0.5c-0.8,0-1.4-0.7-1.4-1.6c0-1.1,0.7-1.7,1.4-1.7
		c0.6,0,0.9,0.3,1,0.6h0l0-0.5H40z M39.4,28.2c0-0.1,0-0.2,0-0.3c-0.1-0.3-0.4-0.6-0.8-0.6c-0.6,0-1,0.5-1,1.2
		c0,0.6,0.3,1.2,0.9,1.2c0.4,0,0.7-0.2,0.8-0.6c0-0.1,0-0.2,0-0.3V28.2z"/>
	<path class="st1" d="M40.9,28c0-0.4,0-0.7,0-1h0.5l0,0.6h0c0.1-0.4,0.5-0.7,0.9-0.7c0.1,0,0.1,0,0.2,0v0.6c-0.1,0-0.1,0-0.2,0
		c-0.4,0-0.7,0.3-0.8,0.8c0,0.1,0,0.2,0,0.3v1.7h-0.6V28z"/>
	<path class="st1" d="M43.4,28.7c0,0.8,0.5,1.1,1.1,1.1c0.4,0,0.7-0.1,0.9-0.2l0.1,0.4c-0.2,0.1-0.6,0.2-1.1,0.2
		c-1,0-1.6-0.7-1.6-1.6c0-1,0.6-1.7,1.5-1.7c1,0,1.3,0.9,1.3,1.5c0,0.1,0,0.2,0,0.3H43.4z M45.1,28.2c0-0.4-0.2-0.9-0.8-0.9
		c-0.6,0-0.8,0.5-0.9,0.9H45.1z"/>
	<path class="st1" d="M46.3,29.6c0.2,0.1,0.5,0.2,0.8,0.2c0.4,0,0.6-0.2,0.6-0.5c0-0.3-0.2-0.4-0.6-0.6c-0.6-0.2-0.8-0.5-0.8-0.9
		c0-0.5,0.4-0.9,1.1-0.9c0.3,0,0.6,0.1,0.8,0.2L48,27.5c-0.1-0.1-0.4-0.2-0.7-0.2c-0.3,0-0.5,0.2-0.5,0.4c0,0.3,0.2,0.4,0.6,0.5
		c0.6,0.2,0.8,0.5,0.8,1c0,0.6-0.4,1-1.2,1c-0.4,0-0.7-0.1-0.9-0.2L46.3,29.6z"/>
	<path class="st1" d="M50.8,30.2l0-0.4h0c-0.2,0.3-0.5,0.5-1,0.5c-0.7,0-1-0.5-1-0.9c0-0.8,0.7-1.2,1.9-1.2v-0.1
		c0-0.3-0.1-0.7-0.7-0.7c-0.3,0-0.6,0.1-0.8,0.2L49,27.2c0.3-0.2,0.7-0.3,1.1-0.3c1,0,1.2,0.7,1.2,1.3v1.2c0,0.3,0,0.6,0.1,0.8H50.8
		z M50.7,28.5c-0.6,0-1.4,0.1-1.4,0.7c0,0.4,0.3,0.6,0.6,0.6c0.4,0,0.7-0.3,0.8-0.5c0-0.1,0-0.1,0-0.2V28.5z"/>
	<path class="st1" d="M52.2,27.8c0-0.3,0-0.6,0-0.9h0.5l0,0.5h0c0.2-0.3,0.5-0.6,1.1-0.6c0.4,0,1.1,0.3,1.1,1.4v1.9h-0.6v-1.9
		c0-0.5-0.2-0.9-0.7-0.9c-0.4,0-0.7,0.3-0.8,0.6c0,0.1,0,0.2,0,0.3v1.9h-0.6V27.8z"/>
	<path class="st1" d="M58.7,25.5v3.9c0,0.3,0,0.6,0,0.8h-0.5l0-0.6h0c-0.2,0.4-0.6,0.6-1.1,0.6c-0.8,0-1.4-0.7-1.4-1.6
		c0-1.1,0.7-1.7,1.4-1.7c0.5,0,0.8,0.2,1,0.5h0v-1.9H58.7z M58.1,28.3c0-0.1,0-0.2,0-0.2c-0.1-0.4-0.4-0.7-0.8-0.7
		c-0.6,0-1,0.5-1,1.2c0,0.7,0.3,1.2,0.9,1.2c0.4,0,0.8-0.3,0.9-0.7c0-0.1,0-0.2,0-0.3V28.3z"/>
	<path class="st1" d="M62.5,28.5c0,1.2-0.8,1.7-1.6,1.7c-0.9,0-1.5-0.6-1.5-1.7c0-1.1,0.7-1.7,1.6-1.7
		C61.9,26.9,62.5,27.6,62.5,28.5z M60,28.6c0,0.7,0.4,1.2,1,1.2c0.6,0,1-0.5,1-1.2c0-0.5-0.3-1.2-1-1.2S60,28,60,28.6z"/>
	<path class="st1" d="M65,28.7c0,0.8,0.5,1.1,1.1,1.1c0.4,0,0.7-0.1,0.9-0.2l0.1,0.4c-0.2,0.1-0.6,0.2-1.1,0.2c-1,0-1.6-0.7-1.6-1.6
		c0-1,0.6-1.7,1.5-1.7c1,0,1.3,0.9,1.3,1.5c0,0.1,0,0.2,0,0.3H65z M66.7,28.2c0-0.4-0.2-0.9-0.8-0.9c-0.6,0-0.8,0.5-0.9,0.9H66.7z"
		/>
	<path class="st1" d="M68,27.8c0-0.3,0-0.6,0-0.9h0.5l0,0.5h0c0.2-0.3,0.5-0.6,1.1-0.6c0.4,0,1.1,0.3,1.1,1.4v1.9h-0.6v-1.9
		c0-0.5-0.2-0.9-0.7-0.9c-0.4,0-0.7,0.3-0.8,0.6c0,0.1,0,0.2,0,0.3v1.9H68V27.8z"/>
	<path class="st1" d="M73.1,25.8c0.3-0.1,0.7-0.1,1.1-0.1c0.6,0,0.9,0.1,1.2,0.3c0.2,0.2,0.4,0.4,0.4,0.8c0,0.4-0.3,0.8-0.8,1v0
		c0.4,0.1,0.9,0.5,0.9,1.1c0,0.4-0.2,0.7-0.4,0.9c-0.3,0.3-0.8,0.4-1.5,0.4c-0.4,0-0.7,0-0.9-0.1V25.8z M73.7,27.6h0.5
		c0.6,0,1-0.3,1-0.8c0-0.5-0.4-0.7-1-0.7c-0.3,0-0.4,0-0.5,0V27.6z M73.7,29.7c0.1,0,0.3,0,0.5,0c0.6,0,1.1-0.2,1.1-0.9
		c0-0.6-0.5-0.9-1.2-0.9h-0.5V29.7z"/>
	<path class="st1" d="M77.3,25.7v4.5h-0.6v-4.5H77.3z"/>
	<path class="st1" d="M78.3,25.7c0.3,0,0.6-0.1,1.1-0.1c0.6,0,1,0.1,1.3,0.4c0.2,0.2,0.4,0.5,0.4,0.9c0,0.4-0.1,0.7-0.3,1
		c-0.3,0.3-0.8,0.5-1.4,0.5c-0.2,0-0.3,0-0.5,0v1.8h-0.6V25.7z M78.9,27.9c0.1,0,0.3,0,0.5,0c0.7,0,1.1-0.3,1.1-1
		c0-0.6-0.4-0.9-1.1-0.9c-0.3,0-0.4,0-0.5,0V27.9z"/>
</g>
</svg>
